<svg xmlns="http://www.w3.org/2000/svg" xmlns:xlink="http://www.w3.org/1999/xlink" fill="none" version="1.1" width="114" height="114" viewBox="0 0 114 114"><defs><clipPath id="master_svg0_571_20765"><rect x="0" y="0" width="114" height="114" rx="0"/></clipPath></defs><g clip-path="url(#master_svg0_571_20765)"><g><g><g><g><g><g><path d="M108.54259886054687,31.390023346679687C108.74756806054687,31.738864346679687,108.33808506054687,31.040953346679686,108.54259886054687,31.390023346679687Z" fill="#FFBB3B" fill-opacity="1"/></g><g><path d="M108.54258911132813,31.390216002929687C108.33808911132813,31.041147002929687,107.96388911132813,30.826828002929688,107.55918911132812,30.826828002929688L37.76272911132813,30.826828002929688C37.35552411132812,30.826828002929688,36.97909511132813,31.044113002929688,36.77549211132813,31.396827002929687C36.571661111328126,31.749542002929687,36.571661111328126,32.18410800292969,36.77526411132813,32.53682800292969L71.67338911132813,93.01522800292969C71.85668911132812,93.33282800292969,72.28288911132813,93.58542800292969,72.66088911132812,93.58542800292969C73.06578911132812,93.58542800292969,73.44058911132812,93.37042800292969,73.64488911132813,93.0206280029297L97.54228911132813,52.12952800292969C98.09018911132813,51.19152800292969,97.22768911132812,50.414328002929686,96.32678911132813,50.414328002929686L49.723589111328124,50.414328002929686L39.736759111328126,33.10705800292969L105.61578911132813,33.10705800292969L100.81338911132812,41.69352800292969C100.50608911132812,42.24302800292969,100.70258911132812,42.93772800292969,101.25208911132812,43.24482800292969C101.80178911132812,43.55242800292969,102.49628911132812,43.35592800292969,102.80358911132812,42.806428002929685L108.55468911132813,32.523608002929684C108.75168911132812,32.17020800292969,108.74758911132812,31.739061002929688,108.54258911132813,31.390216002929687C108.33808911132813,31.041154002929687,108.74758911132812,31.739064002929688,108.54258911132813,31.390216002929687ZM94.57118911132812,52.69412800292969L84.18788911132813,70.4614280029297L67.44738911132812,70.4614280029297C66.81768911132812,70.4614280029297,66.30738911132812,70.97192800292969,66.30738911132812,71.60142800292968C66.30738911132812,72.23092800292969,66.81768911132812,72.7414280029297,67.44738911132812,72.7414280029297L82.85538911132812,72.7414280029297L72.66728911132813,90.17502800292968L51.03938911132813,52.69382800292969L94.57118911132812,52.69382800292969L94.57118911132812,52.69412800292969Z" fill="#FFBB3B" fill-opacity="1"/></g></g><g><path d="M93.15281909179687,15.9486C88.74101909179687,15.9486,85.15206909179688,12.3713,85.15206909179688,7.9743C85.15206909179688,3.57732,88.74124909179687,0,93.15281909179687,0C97.56436909179688,0,101.15376909179687,3.57732,101.15376909179687,7.9743C101.15376909179687,12.3713,97.56456909179687,15.9486,93.15281909179687,15.9486ZM93.15281909179687,2.28C89.99843909179688,2.28,87.43206909179688,4.83451,87.43206909179688,7.9743C87.43206909179688,11.1141,89.99843909179688,13.6686,93.15281909179687,13.6686C96.30746909179688,13.6686,98.87376909179687,11.1141,98.87376909179687,7.9743C98.87376909179687,4.83451,96.30746909179688,2.28,93.15281909179687,2.28Z" fill="#FBE842" fill-opacity="1"/></g><g><path d="M47.61530037109375,23.9221125C42.57308037109375,23.9221125,38.47113037109375,19.8338125,38.47113037109375,14.8087025C38.47113037109375,9.7835825,42.57331037109375,5.6953125,47.61530037109375,5.6953125C52.65753037109375,5.6953125,56.75973037109375,9.7835825,56.75973037109375,14.8087025C56.75973037109375,19.8338125,52.65773037109375,23.9221125,47.61530037109375,23.9221125ZM47.61530037109375,7.975312499999999C43.83027037109375,7.975312499999999,40.75113037109375,11.0407725,40.75113037109375,14.8087025C40.75113037109375,18.5766125,43.83049037109375,21.6421125,47.61530037109375,21.6421125C51.40033037109375,21.6421125,54.47973037109375,18.5766125,54.47973037109375,14.8087025C54.47973037109375,11.0407725,51.40033037109375,7.975312499999999,47.61530037109375,7.975312499999999Z" fill="#FBE842" fill-opacity="1"/></g><g><path d="M81.64158540039062,28.101907812500002C80.87228540039062,28.101907812500002,80.31408540039062,27.3190078125,80.56308540039063,26.5923078125C80.85678540039062,25.734607812500002,81.00568540039063,24.8358078125,81.00568540039063,23.9211078125C81.00568540039063,19.3401278125,77.26208540039062,15.6130078125,72.66088540039063,15.6130078125C68.05958540039063,15.6130078125,64.31628540039063,19.3401278125,64.31628540039063,23.9211078125C64.31628540039063,24.7779078125,64.44715540039063,25.6222078125,64.70525540039063,26.4307078125C64.89699540039062,27.0303078125,64.56594540039063,27.671907812500002,63.966305400390624,27.8634078125C63.36666540039062,28.0545078125,62.72529840039063,27.7241078125,62.533552400390626,27.1243078125C62.203637400390626,26.0914078125,62.036285400390625,25.0137078125,62.036285400390625,23.9211078125C62.036285400390625,18.0829278125,66.80239540039062,13.3330078125,72.66088540039063,13.3330078125C78.51928540039063,13.3330078125,83.28568540039063,18.0829278125,83.28568540039063,23.9211078125C83.28568540039063,25.0878078125,83.09528540039062,26.2351078125,82.72018540039062,27.3311078125C82.55808540039062,27.8042078125,82.11538540039062,28.101907812500002,81.64158540039062,28.101907812500002Z" fill="#FBE842" fill-opacity="1"/></g></g><g><g><g><g><path d="M59.172184472656255,89.36934991699219L52.17068447265625,89.36934991699219L52.17068447265625,82.46778991699219L59.21818447265625,82.46778991699219C59.84798447265625,82.46778991699219,60.35818447265625,81.95729991699218,60.35818447265625,81.32778991699219C60.35818447265625,80.6982789169922,59.84798447265625,80.18778991699219,59.21818447265625,80.18778991699219L51.03073447265625,80.18778991699219C50.40122447265625,80.18778991699219,49.89073447265625,80.6982789169922,49.89073447265625,81.32778991699219L49.89073447265625,89.36934991699219L42.88908447265625,89.36934991699219C42.25957347265625,89.36934991699219,41.74908447265625,89.87983991699218,41.74908447265625,90.50938991699219L41.74908447265625,106.80128991699219C41.74908447265625,107.43078991699218,42.25957747265625,107.94128991699219,42.88908447265625,107.94128991699219L59.172184472656255,107.94128991699219C59.801884472656255,107.94128991699219,60.31218447265625,107.43078991699218,60.31218447265625,106.80128991699219L60.31218447265625,90.50938991699219C60.31218447265625,89.87983991699218,59.801884472656255,89.36934991699219,59.172184472656255,89.36934991699219ZM58.032184472656255,105.66128991699219L44.02908447265625,105.66128991699219L44.02908447265625,91.64938991699219L58.032184472656255,91.64938991699219L58.032184472656255,105.66128991699219Z" fill="#FFBB3B" fill-opacity="1"/></g><g><path d="M38.224918847656255,70.23360772949219L31.22351884765625,70.23360772949219L31.22351884765625,63.33204772949219L47.83371884765625,63.33204772949219C48.46321884765625,63.33204772949219,48.97371884765625,62.821557729492184,48.97371884765625,62.19204772949219C48.97371884765625,61.56253672949219,48.46321884765625,61.05204772949219,47.83371884765625,61.05204772949219L30.08346884765625,61.05204772949219C29.45395884765625,61.05204772949219,28.94346884765625,61.56253672949219,28.94346884765625,62.19204772949219L28.94346884765625,70.23360772949219L21.94181884765625,70.23360772949219C21.31231184765625,70.23360772949219,20.80181884765625,70.74409772949218,20.80181884765625,71.37364772949219L20.80181884765625,76.36794772949219C20.80181884765625,76.9974477294922,21.312309847656252,77.50794772949219,21.94181884765625,77.50794772949219C22.57132884765625,77.50794772949219,23.08181884765625,76.9974477294922,23.08181884765625,76.36794772949219L23.08181884765625,72.51364772949219L37.084918847656255,72.51364772949219L37.084918847656255,86.52554772949219L23.08181884765625,86.52554772949219L23.08181884765625,82.54654772949219C23.08181884765625,81.91704772949218,22.57132884765625,81.40654772949219,21.94181884765625,81.40654772949219C21.31231384765625,81.40654772949219,20.80182054638625,81.91704772949218,20.80182054638625,82.54654772949219L20.80182054638625,87.66554772949219C20.80182054638625,88.29504772949218,21.31231384765625,88.80554772949219,21.94181884765625,88.80554772949219L38.224918847656255,88.80554772949219C38.85441884765625,88.80554772949219,39.36491884765625,88.29504772949218,39.36491884765625,87.66554772949219L39.36491884765625,71.37364772949219C39.36491884765625,70.74387772949218,38.854618847656255,70.23360772949219,38.224918847656255,70.23360772949219Z" fill="#FFBB3B" fill-opacity="1"/></g><g><path d="M17.4231,51.324916323242185L10.5037,51.324916323242185L10.5037,44.42335632324219L37.5879,44.42335632324219C38.2174,44.42335632324219,38.7279,43.912866323242184,38.7279,43.28335632324219C38.7279,42.653849323242184,38.2174,42.14335632324219,37.5879,42.14335632324219L9.36373,42.14335632324219C8.73422,42.14335632324219,8.22373,42.653849323242184,8.22373,43.28335632324219L8.22373,51.324916323242185L1.14,51.324916323242185C0.510492,51.324916323242185,0,51.83540632324219,0,52.46495632324219L0,68.75685632324219C0,69.38635632324218,0.510492,69.89685632324219,1.14,69.89685632324219L17.4231,69.89685632324219C18.0526,69.89685632324219,18.5631,69.38635632324218,18.5631,68.75685632324219L18.5631,52.46495632324219C18.5631,51.83540632324219,18.0526,51.324916323242185,17.4231,51.324916323242185ZM16.2831,67.61685632324219L2.28,67.61685632324219L2.28,53.60495632324219L16.2831,53.60495632324219L16.2831,67.61685632324219Z" fill="#FFBB3B" fill-opacity="1"/></g></g></g></g></g><g><ellipse cx="99.2157951593399" cy="46.73444139957428" rx="1.4819999933242798" ry="1.4819999933242798" fill="#FFBB3B" fill-opacity="1"/></g></g><g><g><path d="M87.0510938684082,95.75481492614746C86.6568738684082,95.75481492614746,86.2733838684082,95.55011492614746,86.0622538684082,95.18391492614747C85.1712288684082,93.63831492614746,84.7001838684082,91.87591492614746,84.7001838684082,90.08721492614745C84.7001838684082,84.42941492614746,89.3190138684082,79.82631492614746,94.9961838684082,79.82631492614746C100.67338386840821,79.82631492614746,105.2924838684082,84.42917492614745,105.2924838684082,90.08721492614745C105.2924838684082,91.62121492614746,104.9593838684082,93.09801492614746,104.30228386840821,94.47641492614746C104.0313838684082,95.04461492614746,103.3514838684082,95.28561492614746,102.7826838684082,95.01501492614746C102.2142838684082,94.74411492614746,101.9729838684082,94.06381492614746,102.24408386840821,93.49541492614746C102.7538838684082,92.42581492614747,103.0124838684082,91.27901492614745,103.0124838684082,90.08721492614745C103.0124838684082,85.68660492614747,99.4164838684082,82.10631492614746,94.9961838684082,82.10631492614746C90.5759738684082,82.10631492614746,86.9801838684082,85.68660492614747,86.9801838684082,90.08721492614745C86.9801838684082,91.47691492614746,87.3458938684082,92.84561492614746,88.0376438684082,94.04531492614746C88.4642238684082,94.78541492614747,87.9090438684082,95.75481492614746,87.0510938684082,95.75481492614746Z" fill="#FFBB3B" fill-opacity="1"/></g><g><path d="M112.86004158325196,104.84025398864746L107.40574158325195,104.84025398864746L107.40574158325195,99.16260398864746C107.40574158325195,98.53309298864747,106.89554158325195,98.02260398864746,106.26574158325195,98.02260398864746L83.72684158325195,98.02260398864746C83.09710658325196,98.02260398864746,82.58684158325195,98.53309298864747,82.58684158325195,99.16260398864746L82.58684158325195,106.04273398864746C82.58684158325195,106.67224398864747,83.09710658325196,107.18273398864746,83.72684158325195,107.18273398864746L89.18105158325196,107.18273398864746L89.18105158325196,112.86040398864746C89.18105158325196,113.48990398864746,89.69132158325195,114.00040398864746,90.32105158325196,114.00040398864746L112.86004158325196,114.00040398864746C113.48974158325196,114.00040398864746,113.99994158325195,113.48990398864746,113.99994158325195,112.86040398864746L113.99994158325195,105.98025398864746C113.99994158325195,105.35074398864747,113.48974158325196,104.84025398864746,112.86004158325196,104.84025398864746ZM84.86684158325195,100.30260398864746L105.12574158325195,100.30260398864746L105.12574158325195,104.84025398864746L84.86684158325195,104.90272398864747L84.86684158325195,100.30260398864746ZM111.72004158325196,111.72040398864746L91.46105158325196,111.72040398864746L91.46105158325196,107.18273398864746L111.72004158325196,107.12026398864747L111.72004158325196,111.72040398864746Z" fill="#FFBB3B" fill-opacity="1"/></g><g><g><path d="M73.27214459594727,23.06941633239746C72.10386459594727,22.59038633239746,71.90687459594727,22.33183633239746,71.90687459594727,21.93328633239746C71.90687459594727,21.563706332397462,72.17545459594727,21.168806332397462,72.92877459594726,21.168806332397462C73.55554459594727,21.168806332397462,74.14651459594727,21.39726633239746,74.66886459594727,21.728776332397462L75.20238459594727,20.33272633239746C74.71036459594727,20.00737633239746,74.13853459594726,19.80946633239746,73.55166459594727,19.74380633239746L73.55166459594727,18.51625633239746L72.12620459594727,18.51625633239746L72.12620459594727,19.83044633239746C71.01744659594726,20.113166332397462,70.22263759594726,20.974556332397462,70.22263759594726,22.08240633239746C70.22263759594726,23.44926633239746,71.30631459594727,24.060986332397462,72.47915459594726,24.51721633239746C73.55622459594727,24.95018633239746,73.70237459594726,25.34872633239746,73.70237459594726,25.71466633239746C73.70237459594726,26.26118633239746,73.22517459594727,26.62849633239746,72.51677459594727,26.62849633239746C71.80427459594726,26.62849633239746,71.11958459594726,26.34714633239746,70.55232759594726,25.92807633239746L70.03955459594727,27.34669633239746C70.57010959594727,27.781486332397463,71.29355459594727,28.004016332397462,71.96820459594727,28.068776332397462L71.96820459594727,29.40235633239746L73.39366459594727,29.40235633239746L73.39366459594727,27.99102633239746C74.66065459594726,27.69598633239746,75.39071459594726,26.773046332397463,75.39071459594726,25.62757633239746C75.39047459594727,24.12550633239746,74.26507459594727,23.47114633239746,73.27214459594727,23.06941633239746C72.10386459594727,22.59038633239746,74.26507459594727,23.47114633239746,73.27214459594727,23.06941633239746Z" fill="#FBE842" fill-opacity="1"/></g><g><path d="M92.55818447875977,6.349589301147461C92.55818447875977,6.065499301147461,92.76452447875977,5.762029301147461,93.34387447875977,5.762029301147461C93.81720447875976,5.762029301147461,94.28961447875976,5.929839301147461,94.68154447875976,6.1924993011474605L95.09171447875977,5.119299301147461C94.71186447875976,4.866219301147461,94.27707447875977,4.717335301147461,93.82290447875977,4.666491301147461L93.82290447875977,3.722799301147461L92.72713447875977,3.722799301147461L92.72713447875977,4.733069301147461C91.87486947875976,4.950349301147461,91.26382847875976,5.612459301147461,91.26382847875976,6.464269301147461C91.26382847875976,7.515119301147461,92.09671047875976,7.985259301147461,92.99845447875977,8.335919301147461C93.82655447875976,8.66879930114746,93.93872447875977,8.97500930114746,93.93872447875977,9.25658930114746C93.93872447875977,9.676789301147462,93.57186447875976,9.95905930114746,93.02717447875976,9.95905930114746C92.48020447875976,9.95905930114746,91.94736447875977,9.75020930114746,91.51689947875977,9.420519301147461L91.12268447875977,10.511039301147461C91.55565747875977,10.83958930114746,92.06272947875976,11.01423930114746,92.60536447875977,11.06599930114746L92.60536447875977,12.091079301147461L93.70113447875977,12.091079301147461L93.70113447875977,11.00602930114746C94.67515447875977,10.779169301147462,95.23626447875976,10.069639301147461,95.23626447875976,9.18932930114746C95.23626447875976,8.03427930114746,94.37122447875977,7.531309301147461,93.60788447875977,7.222369301147461C92.70979447875976,6.854609301147461,92.55816447875976,6.655789301147461,92.55818447875977,6.349589301147461Z" fill="#FBE842" fill-opacity="1"/></g><g><path d="M46.89526124633789,13.067622738647461C46.89526124633789,12.73611273864746,47.13603124633789,12.38202273864746,47.81182124633789,12.38202273864746C48.36404124633789,12.38202273864746,48.91534124633789,12.577652738647462,49.37248124633789,12.884312738647461L49.85082124633789,11.63236273864746C49.40782124633789,11.337102738647461,48.90029124633789,11.16336273864746,48.37042124633789,11.104082738647461L48.37042124633789,10.003072738647461L47.09202124633789,10.003072738647461L47.09202124633789,11.181832738647461C46.09771524633789,11.43537273864746,45.38476124633789,12.207832738647461,45.38476124633789,13.201682738647461C45.38476124633789,14.42764273864746,46.35650124633789,14.976212738647462,47.40849124633789,15.385242738647461C48.37452124633789,15.773522738647461,48.50540124633789,16.131032738647463,48.50540124633789,16.45935273864746C48.50540124633789,16.949552738647462,48.07744124633789,17.27901273864746,47.44200124633789,17.27901273864746C46.80315124633789,17.27901273864746,46.188917246337894,17.02661273864746,45.68024824633789,16.65087273864746L45.22037124633789,17.923342738647463C45.71444724633789,18.30455273864746,46.32913124633789,18.51135273864746,46.950211246337894,18.57085273864746L46.950211246337894,19.766712738647463L48.22860124633789,19.766712738647463L48.22860124633789,18.500862738647463C49.36495124633789,18.236152738647462,50.019541246337894,17.40851273864746,50.019541246337894,16.38137273864746C50.019541246337894,15.033662738647461,49.01018124633789,14.44679273864746,48.11984124633789,14.086782738647461C47.072191246337894,13.656772738647462,46.89526124633789,13.424892738647461,46.89526124633789,13.067622738647461Z" fill="#FBE842" fill-opacity="1"/></g></g><g><path d="M52.050803165283206,101.52847976989746C50.4456831652832,101.46304976989747,49.3649631652832,100.35587976989746,49.3649631652832,98.61075976989746C49.3649631652832,96.81685976989746,50.440213165283204,95.65747976989746,52.104163165283204,95.65747976989746C52.809823165283206,95.65747976989746,53.4961031652832,95.82915976989746,54.0898131652832,96.21105976989746L54.6185431652832,94.41214376989745C53.8485831652832,94.00904176989746,52.9707831652832,93.82777976989746,52.1041531652832,93.82777976989746C49.2160831652832,93.82777976989746,47.1989631652832,95.82391976989746,47.1989631652832,98.68212976989746C47.1989631652832,101.47945976989746,49.0348231652832,103.35862976989746,51.7669431652832,103.35862976989746C52.73161316528321,103.35862976989746,53.713833165283205,103.18284976989746,54.5683831652832,102.72341976989746L54.1737131652832,100.98423976989746C54.1741731652832,100.98446976989746,53.1620731652832,101.57384976989746,52.050803165283206,101.52847976989746Z" fill="#FFBB3B" fill-opacity="1"/></g><g><path d="M10.138919971923828,55.69154930114746L8.28664997192383,55.69154930114746L5.050189971923828,65.22240930114747L6.931189971923828,65.22240930114747L7.852079971923828,62.43168930114746L10.52378997192383,62.43168930114746L11.470899971923828,65.22240930114747L13.389519971923828,65.22240930114747L10.138919971923828,55.69154930114746ZM9.180869971923828,58.25266930114746Q9.233309971923827,58.42891930114746,10.062769971923828,60.87808930114746L8.309679971923828,60.87808930114746C8.309449971923828,60.87808930114746,9.132069971923828,58.42047930114746,9.180869971923828,58.25266930114746Z" fill="#FFBB3B" fill-opacity="1"/></g><g><path d="M33.00891045043945,77.07391992614745C33.00891045043945,75.17239692614746,31.138170450439453,74.52943992614746,29.537150450439455,74.52943992614746C28.721600450439453,74.52943992614746,27.905357450439453,74.60627702614747,27.109180450439453,74.78434492614745L27.109180450439453,83.90684992614746C27.81233145043945,84.01172992614747,28.520960450439453,84.06028992614746,29.232090450439454,84.06028992614746C31.109210450439452,84.06028992614746,33.32719045043945,83.40775992614746,33.32719045043945,81.13436992614746C33.32719045043945,80.20161992614746,32.867780450439454,79.40566992614745,32.059740450439456,78.92413992614746C32.66531045043945,78.46493992614747,33.00891045043945,77.80009992614747,33.00891045043945,77.07391992614745ZM29.62630045043945,78.22120992614747L29.026890450439453,78.22120992614747L29.026890450439453,76.21549992614746C29.189910450439452,76.20113992614746,29.382570450439452,76.19360992614746,29.600990450439454,76.19360992614746C31.078430450439452,76.19360992614746,31.078430450439452,76.91637992614746,31.078430450439452,77.18837992614746C31.078430450439452,77.81559992614746,30.50843045043945,78.22121992614746,29.62630045043945,78.22120992614747ZM31.345650450439454,81.12136992614747C31.345650450439454,81.95903992614745,30.74145045043945,82.38357992614746,29.550150450439453,82.38357992614746C29.340850450439454,82.38357992614746,29.168480450439453,82.37992992614745,29.026890450439453,82.37240992614745L29.026890450439453,79.87192992614746L29.537380450439453,79.87192992614746C30.080940450439453,79.87215992614746,31.345650450439454,79.99391992614746,31.345650450439454,81.12136992614747Z" fill="#FFBB3B" fill-opacity="1"/></g><g><path d="M94.04314500122071,87.92309648864746C94.04314500122071,87.56627648864746,94.3023850012207,87.18505648864746,95.0297050012207,87.18505648864746C95.6348150012207,87.18505648864746,96.2052750012207,87.40553648864746,96.70960500122071,87.72564648864746L97.2246550012207,86.37794648864747C96.7476850012207,86.06011648864747,96.2013950012207,85.87314648864746,95.63116500122071,85.80930648864747L95.63116500122071,84.62416648864746L94.25518500122071,84.62416648864746L94.25518500122071,85.89298648864747C93.1849560012207,86.16590648864747,92.4175020012207,86.99741648864746,92.4175020012207,88.06696648864747C92.4175020012207,89.38662648864747,93.4635650012207,89.97714648864746,94.5958150012207,90.41741648864746C95.6357250012207,90.83557648864746,95.77662500122071,91.22020648864746,95.77662500122071,91.57361648864746C95.77662500122071,92.10120648864746,95.3158350012207,92.45574648864746,94.63206500122071,92.45574648864746C93.9444150012207,92.45574648864746,93.2832150012207,92.18419648864746,92.73555900122071,91.77949648864747L92.2403450012207,93.14909648864746C92.7526620012207,93.56884648864747,93.4510250012207,93.78384648864746,94.10242500122071,93.84608648864746L94.10242500122071,95.13336648864745L95.47863500122071,95.13336648864745L95.47863500122071,93.77084648864746C96.70185500122071,93.48584648864747,97.40659500122071,92.59505648864746,97.40659500122071,91.48925648864746C97.40659500122071,90.03848648864746,96.3201750012207,89.40692648864746,95.3616650012207,89.01932648864747C94.2335250012207,88.55740648864746,94.04314500122071,88.30774648864747,94.04314500122071,87.92309648864746Z" fill="#FFBB3B" fill-opacity="1"/></g></g></g></g></svg>