<svg xmlns="http://www.w3.org/2000/svg" xmlns:xlink="http://www.w3.org/1999/xlink" fill="none" version="1.1" width="115" height="114" viewBox="0 0 115 114"><defs><clipPath id="master_svg0_571_20731"><rect x="0" y="0" width="115" height="114" rx="0"/></clipPath></defs><g clip-path="url(#master_svg0_571_20731)"><g><g><g><path d="M15.33891234375,10.447325366210936C11.586022343749999,10.447325366210936,8.53272234375,13.474095366210937,8.53272234375,17.194335366210936L8.53272234375,96.80557536621093C8.53272234375,100.52577536621094,11.58604234375,103.55257536621093,15.33891234375,103.55257536621093L99.66120234375,103.55247536621094C103.41410234375,103.55247536621094,106.46740234375,100.52587536621094,106.46740234375,96.80567536621093L106.46740234375,17.194225366210937C106.46740234375,13.474105366210939,103.41380234375,10.447395366210937,99.66100234375,10.447395366210937L15.33891234375,10.447325366210936L15.33891234375,10.447325366210936ZM99.66120234375,106.22427536621093L15.33891234375,106.22427536621093C10.100412343750001,106.22427536621093,5.83740234375,101.99847536621094,5.83740234375,96.80557536621093L5.83740234375,17.19414536621094C5.83740234375,12.001195366210936,10.100292343749999,7.775440767410937,15.33891234375,7.775440767410937L99.66120234375,7.7753753662109375C104.89970234375,7.7753753662109375,109.16240234375,12.001265366210937,109.16240234375,17.194265366210935L109.16240234375,96.80547536621094C109.16240234375,101.99847536621094,104.89960234375,106.22437536621094,99.66120234375,106.22427536621093Z" fill-rule="evenodd" fill="#FFBB3B" fill-opacity="1"/></g><g><path d="M19.7492666796875,17.050650991210937C18.7596066796875,17.050650991210937,17.9546066796875,17.84630099121094,17.9546066796875,18.82735099121094C17.9546666796875,19.808400991210938,18.7594166796875,20.60634099121094,19.749076679687498,20.60634099121094C20.7389966796875,20.606270991210938,21.5436666796875,19.808460991210936,21.5436666796875,18.82735099121094C21.5438666796875,17.846240991210937,20.7387866796875,17.050720991210937,19.7492666796875,17.050650991210937ZM19.7492666796875,23.278150991210936C17.2740066796875,23.278150991210936,15.2615966796875,21.281200991210937,15.2615966796875,18.827330991210935C15.2619942426875,16.373400991210936,17.2737366796875,14.378890991210938,19.7490566796875,14.378890991210938C22.2245266796875,14.378760189210938,24.2389666796875,16.373530991210938,24.2389666796875,18.827330991210935C24.2391666796875,21.281200991210937,22.2244366796875,23.278200991210937,19.7492666796875,23.278150991210936Z" fill-rule="evenodd" fill="#FFBB3B" fill-opacity="1"/></g><g><path d="M31.99034828125,17.050650991210937C31.00069828125,17.050650991210937,30.19586828125,17.84630099121094,30.19586828125,18.82735099121094C30.19626828125,19.808400991210938,31.00068828125,20.60634099121094,31.99034828125,20.60634099121094C32.98006828125,20.606270991210938,33.78255828125,19.808460991210936,33.78255828125,18.82735099121094C33.78282828125,17.846240991210937,32.98006828125,17.050720991210937,31.99034828125,17.050650991210937ZM31.99034828125,23.278150991210936C29.51508828125,23.278150991210936,27.50048828125,21.281200991210937,27.50048828125,18.827330991210935C27.50095267625,16.373400991210936,29.51494828125,14.378890991210938,31.99034828125,14.378890991210938C34.46614828125,14.378760189210938,36.47787828125,16.373530991210938,36.47787828125,18.827330991210935C36.47813828125,21.281200991210937,34.46573828125,23.278200991210937,31.99034828125,23.278150991210936Z" fill-rule="evenodd" fill="#FFBB3B" fill-opacity="1"/></g><g><path d="M44.23200025390625,17.050650991210937C43.24228025390625,17.050650991210937,42.43714025390625,17.84630099121094,42.43714025390625,18.82735099121094C42.43741025390625,19.808400991210938,43.24196025390625,20.60634099121094,44.23169025390625,20.60634099121094C45.21902025390625,20.606270991210938,46.02383025390625,19.808460991210936,46.02383025390625,18.82735099121094C46.02397025390625,17.846240991210937,45.21902025390625,17.050720991210937,44.23200025390625,17.050650991210937ZM44.23200025390625,23.278150991210936C41.75675025390625,23.278150991210936,39.74176025390625,21.281200991210937,39.74176025390625,18.827330991210935C39.74209269890625,16.373400991210936,41.75629025390625,14.378890991210938,44.23167025390625,14.378890991210938C46.70727025390625,14.378760189210938,48.71920025390625,16.373530991210938,48.71920025390625,18.827330991210935C48.71926025390625,21.281200991210937,46.70699025390625,23.278200991210937,44.23200025390625,23.278150991210936Z" fill-rule="evenodd" fill="#FFBB3B" fill-opacity="1"/></g><g><path d="M107.81540234375,29.87889599121094L7.18506234375,29.87889599121094C6.44119534375,29.87889599121094,5.83740234375,29.280545991210936,5.83740234375,28.54302599121094C5.83740234375,27.805427991210937,6.44106234375,27.207082241810937,7.18506234375,27.207082241810937L107.81540234375,27.207015991210938C108.55940234375,27.207015991210938,109.16240234375,27.805426991210936,109.16240234375,28.54302599121094C109.16240234375,29.280545991210936,108.55940234375,29.878955991210937,107.81540234375,29.87889599121094Z" fill-rule="evenodd" fill="#FFBB3B" fill-opacity="1"/></g><g><path d="M57.43483994140625,38.71336864746094C42.29213994140625,38.71336864746094,29.97125994140625,50.92698864746094,29.97125994140625,65.93778864746093C29.97151994140625,80.95078864746094,42.29203994140625,93.16218864746094,57.43453994140625,93.16218864746094C72.57963994140624,93.16218864746094,84.89773994140626,80.95088864746094,84.89773994140626,65.93778864746093C84.89813994140624,50.92698864746094,72.57923994140626,38.71336864746094,57.43483994140625,38.71336864746094ZM57.43483994140625,95.83408864746093C40.80443994140625,95.83408864746093,27.27593994140625,82.42368864746093,27.27593994140625,65.93778864746093C27.27620555440625,49.45418864746094,40.80393994140625,36.04148864746094,57.43453994140625,36.04148864746094C74.06523994140625,36.04148864746094,87.59303994140626,49.45428864746094,87.59303994140626,65.93778864746093C87.59343994140625,82.42358864746095,74.06503994140624,95.83408864746093,57.43483994140625,95.83408864746093Z" fill-rule="evenodd" fill="#FBE842" fill-opacity="1"/></g><g><path d="M57.43479033203125,47.94872020996094C47.42999033203125,47.94872020996094,39.28791033203125,56.02004020996094,39.28791033203125,65.93744020996094C39.28830033203125,75.85724020996093,47.42999033203125,83.92624020996094,57.434490332031245,83.92624020996094C67.44169033203124,83.92624020996094,75.58099033203125,75.85724020996093,75.58099033203125,65.93744020996094C75.58129033203124,56.01984020996094,67.44119033203125,47.948730209960935,57.43479033203125,47.94872020996094ZM57.43479033203125,86.59814020996095C45.94235033203125,86.59814020996095,36.59259033203125,77.33004020996094,36.59259033203125,65.93744020996094C36.59298789503125,54.54485020996094,45.94197033203125,45.27684020996094,57.434490332031245,45.27684020996094C68.92729033203125,45.27684020996094,78.27629033203125,54.544920209960935,78.27629033203125,65.93744020996094C78.27659033203125,77.33004020996094,68.92699033203125,86.59814020996095,57.43479033203125,86.59814020996095Z" fill-rule="evenodd" fill="#FBE842" fill-opacity="1"/></g><g><path d="M57.4348052734375,74.08085974121093C55.9113252734375,74.08085974121093,54.4233252734375,73.66345974121094,53.1294552734375,72.87255974121094C52.4958852734375,72.48515974121094,52.2989052734375,71.66185974121093,52.6896052734375,71.03565974121094C53.0807052734375,70.40705974121094,53.9109252734375,70.20995974121094,54.5449652734375,70.59725974121093C55.4106652734375,71.12835974121094,56.4120652734375,71.40905974121094,57.4344752734375,71.40905974121094C60.4786052734375,71.40895974121094,62.953805273437496,68.95515974121093,62.953805273437496,65.93773974121093C62.9539052734375,62.922479741210935,60.4784052734375,60.46873974121094,57.4344752734375,60.46873974121094C54.8074052734375,60.46860974121094,52.5305152734375,62.31953974121094,52.0228152734375,64.87082974121094C51.8778352734375,65.59434974121093,51.1687952734375,66.06527974121094,50.4388552734375,65.92142974121094C49.7089192734375,65.77987974121093,49.2339212734375,65.07726974121094,49.3789696734375,64.35360974121093C50.1348392734375,60.55446974121094,53.5225452734375,57.79685974121094,57.4344752734375,57.79685974121094C61.9642052734375,57.796730637210935,65.6491052734375,61.449789741210935,65.6491052734375,65.93773974121093C65.6492052734375,70.42785974121094,61.9641052734375,74.08095974121093,57.4348052734375,74.08085974121093Z" fill-rule="evenodd" fill="#FBE842" fill-opacity="1"/></g><g><path d="M49.0798162109375,65.90282349121094L52.2594862109375,71.72895349121094L55.759666210937496,66.08835349121094L49.0798162109375,65.90282349121094ZM52.1846662109375,75.73675349121093C52.1704762109375,75.73675349121093,52.1584762109375,75.73685349121094,52.1444162109375,75.73455349121093C51.6651062109375,75.72285349121094,51.2272462109375,75.45625349121093,50.9979762109375,75.03635349121093L45.6006412109375,65.13741349121094C45.3710996109375,64.71757349121094,45.3850931109375,64.20975349121093,45.6377822109375,63.80384349121094C45.8907312109375,63.395631491210935,46.3513392109375,63.156782591210934,46.8216262109375,63.16835439221094L58.1669662109375,63.481430491210936C58.6486662109375,63.49530649121094,59.0862662109375,63.762163491210934,59.315566210937504,64.18188349121094C59.5452662109375,64.60159349121093,59.5307662109375,65.11197349121093,59.278066210937496,65.51781349121094L53.3307062109375,75.09895349121093C53.0854462109375,75.49555349121094,52.6497862109375,75.73685349121094,52.1846662109375,75.73675349121093Z" fill-rule="evenodd" fill="#FBE842" fill-opacity="1"/></g><g><path d="M22.5946716796875,85.19963083496094C22.1145696796875,85.19963083496094,21.6513126796875,84.94683083496093,21.4079786796875,84.49923083496094C21.0548136796875,83.84973083496094,21.2980164796875,83.04033083496094,21.9531436796875,82.68783083496093L48.8434716796875,68.27532883496093C49.498271679687505,67.92517283496093,50.314771679687496,68.16645383496093,50.670471679687495,68.81581783496094C51.0239716796875,69.46518083496093,50.780371679687505,70.27470083496094,50.1252716796875,70.62722083496094L23.2352816796875,85.03953083496094C23.0294916796875,85.14853083496094,22.8118216796875,85.19963083496094,22.5946716796875,85.19963083496094Z" fill-rule="evenodd" fill="#FBE842" fill-opacity="1"/></g><g><path d="M15.33890513671875,87.75097489746094L18.08846513671875,88.73439489746093L22.444615136718753,86.40117489746093L20.371525136718752,82.59979489746094L16.01537513671875,84.93296489746093L15.33890513671875,87.75097489746094ZM18.19843513671875,91.53154489746093C18.04370513671875,91.53154489746093,17.88910513671875,91.50374489746093,17.741745136718748,91.45034489746094L13.29426913671875,89.85924489746094C12.64829413671875,89.62964489746093,12.28087213671875,88.95477489746094,12.43997903671875,88.29377489746093L13.53269513671875,83.73389489746094C13.621695136718749,83.36283489746094,13.86490513671875,83.04975489746094,14.201745136718749,82.86882489746094L20.27575513671875,79.61241289746094C20.58952513671875,79.44311725746094,20.958805136718752,79.40610529746094,21.30036513671875,79.50814469746093C21.64238513671875,79.61011589746094,21.92969513671875,79.84212889746094,22.10053513671875,80.15290889746093L25.455815136718748,86.30375489746093C25.81171513671875,86.95318489746094,25.565615136718748,87.76500489746094,24.91281513671875,88.11522489746093L18.83909513671875,91.36904489746094C18.64013513671875,91.47594489746093,18.42020513671875,91.53154489746093,18.19843513671875,91.53154489746093Z" fill-rule="evenodd" fill="#FBE842" fill-opacity="1"/></g></g></g></g></svg>