<svg xmlns="http://www.w3.org/2000/svg" xmlns:xlink="http://www.w3.org/1999/xlink" fill="none" version="1.1" width="115" height="114" viewBox="0 0 115 114"><defs><clipPath id="master_svg0_571_20748"><rect x="0" y="0" width="115" height="114" rx="0"/></clipPath></defs><g clip-path="url(#master_svg0_571_20748)"><g><g><g><path d="M39.53132098083496,49.875C49.45062098083496,49.8642,57.48912098083496,41.8956,57.50002098083496,32.0625L57.50002098083496,16.0313C57.49212098083496,9.1482,51.865320980834966,3.57035239,44.92192098083496,3.5625L34.14062098083496,3.5625C27.19722098083496,3.57035239,21.57044139083496,9.1482,21.56252098083496,16.0313L21.56252098083496,32.0625C21.573416280834962,41.8956,29.61192098083496,49.8642,39.53132098083496,49.875ZM39.53132098083496,46.3125C34.99772098083496,46.306,30.734000980834963,44.1761,28.03127098083496,40.568C28.84603098083496,40.8207,29.69329098083496,40.9556,30.546900980834963,40.9687L41.32812098083496,40.9687C42.32052098083496,40.9687,43.12502098083496,40.1713,43.12502098083496,39.1875C43.12502098083496,38.2037,42.32052098083496,37.4063,41.32812098083496,37.4063L30.546900980834963,37.4063C27.56973098083496,37.4063,25.15627098083496,35.0138,25.15627098083496,32.0625L25.15627098083496,19.5937L30.69783098083496,19.5937C33.79932098083496,19.5946,36.84242098083496,20.43,39.50252098083496,22.0109C42.72122098083496,23.9259,46.40562098083496,24.9375,50.16162098083496,24.9375L53.90632098083496,24.9375L53.90632098083496,32.0625C53.89732098083496,39.9289,47.46662098083496,46.3037,39.53132098083496,46.3125ZM34.14062098083496,7.125L44.92192098083496,7.125C49.88132098083496,7.13089,53.90032098083496,11.114899999999999,53.90632098083496,16.0313L53.90632098083496,21.375L50.16162098083496,21.375C47.06012098083496,21.3741,44.01702098083496,20.5387,41.35692098083496,18.9578C38.13822098083496,17.0429,34.45382098083496,16.0313,30.69783098083496,16.0313L25.15627098083496,16.0313C25.16221098083496,11.114899999999999,29.18117098083496,7.13089,34.14062098083496,7.125Z" fill="#FFBB3B" fill-opacity="1"/></g><g><path d="M46.66488562927246,66.33722265625C46.93158562927246,65.37292265625,46.34558562927246,64.37993665625,45.36688562927246,64.13790115625C44.38828562927246,63.89586565625,43.40038562927246,64.49960165625,43.17888562927246,65.47509265625L41.72168562927246,71.24991265625L37.34087562927246,71.24991265625L35.88360562927246,65.47509265625C35.66215562927246,64.49960165625,34.67428562927246,63.89586565625,33.69561562927246,64.13790115625C32.71695562927246,64.37994365625,32.13093562927246,65.37292265625,32.39767562927246,66.33722265625L34.10829562927246,73.12557265625L30.56486142927246,97.71577265625001C30.40939362927246,98.78907265625,31.249639629272462,99.74987265625,32.34376562927246,99.74987265625L46.71878562927246,99.74987265625C47.81278562927246,99.75007265625,48.652985629272465,98.78927265625,48.49768562927246,97.71577265625001L44.95418562927246,73.13447265625L46.66488562927246,66.33722265625ZM34.415565629272464,96.18737265625L37.49540562927246,74.81237265625L41.56708562927246,74.81237265625L44.646985629272464,96.18737265625L34.415565629272464,96.18737265625Z" fill="#FFBB3B" fill-opacity="1"/></g><g><path d="M67.79257098083497,57.377666875C70.19177098083496,57.972046875000004,71.87507098083496,60.109946875,71.87507098083496,62.562846875L71.87507098083496,76.593746875C71.87507098083496,77.577546875,72.67947098083496,78.375046875,73.67187098083497,78.375046875C74.66427098083496,78.375046875,75.46877098083496,77.577546875,75.46877098083496,76.593746875L75.46877098083496,62.562846875C75.47357098083496,58.474536875,72.66607098083496,54.909536875,68.66397098083496,53.922036875L52.54607098083496,49.928473075C51.67317098083496,49.711721875,50.77307098083496,50.168490875,50.44007098083496,50.997226875L47.51477098083496,58.246906875L40.19967098083496,55.345256875C39.77047098083496,55.176076875,39.29217098083496,55.176076875,38.86287098083496,55.345256875L31.54777098083496,58.246906875L28.62247098083496,50.995446875C28.28947098083496,50.166709875,27.38947098083496,49.709941875,26.51647098083496,49.926692875L10.398540980834962,53.920256875C6.395790980834962,54.907906875,3.588135270834961,58.473866875,3.593779977414961,62.562846875L3.593779977414961,97.968746875C3.593779977414961,98.952546875,4.3982679808349605,99.75004687500001,5.390650980834961,99.75004687500001L25.15627098083496,99.75004687500001C26.14867098083496,99.75004687500001,26.95317098083496,98.952546875,26.95317098083496,97.968746875C26.95317098083496,96.985046875,26.14867098083496,96.18754687500001,25.15627098083496,96.18754687500001L7.187530980834961,96.18754687500001L7.187530980834961,62.562846875C7.186980980834961,60.110646875,8.870210980834962,57.972746875,11.27003098083496,57.377666875L25.86787098083496,53.761726875L28.87757098083496,61.223346875000004C29.245470980834963,62.137546875,30.291570980834962,62.582646875,31.213570980834962,62.217346875000004L39.53127098083496,58.918436875L47.84717098083496,62.217346875000004C48.769170980834964,62.582646875,49.81527098083496,62.137546875,50.18317098083496,61.223346875000004L53.18757098083496,53.761716875L67.79257098083497,57.377666875Z" fill="#FFBB3B" fill-opacity="1"/></g><g><path d="M73.67192098083495,81.9375C64.74042098083495,81.9375,57.50002098083496,89.11494,57.50002098083496,97.9687C57.50002098083496,106.8226,64.74042098083495,114,73.67192098083495,114C82.60342098083495,114,89.84382098083496,106.8226,89.84382098083496,97.9687C89.83392098083496,89.11901,82.59932098083496,81.94731867,73.67192098083495,81.9375ZM73.67192098083495,110.4375C66.72519098083497,110.4375,61.09377098083496,104.8551,61.09377098083496,97.9687C61.09377098083496,91.08245,66.72519098083497,85.5,73.67192098083495,85.5C80.61862098083496,85.5,86.25002098083496,91.08245,86.25002098083496,97.9687C86.24212098083495,104.8518,80.61532098083497,110.4296,73.67192098083495,110.4375Z" fill="#FFBB3B" fill-opacity="1"/></g><g><path d="M77.79206863708497,93.14706565625L71.87498863708495,99.01272265625L69.55162863708496,96.70956265625C68.84658863708496,96.03445265625,67.72580863708497,96.04407265625,67.03265963708496,96.73118265625C66.33951563708496,97.41830265625,66.32980963708496,98.52934265625,67.01084863708496,99.22825265624999L70.60459863708496,102.79077265625C71.30627863708496,103.48607265625,72.44370863708497,103.48607265625,73.14537863708496,102.79077265625L80.33286863708496,95.66575265625C81.01396863708496,94.96684265625,81.00416863708496,93.85580265625,80.31106863708496,93.16868765625C79.61796863708496,92.48157065625,78.49716863708497,92.47194865625,77.79206863708497,93.14706565625Z" fill="#FFBB3B" fill-opacity="1"/></g><g><path d="M86.25007098083496,0C72.36277098083497,0.0147234,61.10865218083496,11.171,61.09379839893496,24.9375C61.08634066083496,30.0821,62.699530980834965,35.1007,65.70817098083496,39.2926L64.70013098083496,47.8889C64.55587098083497,49.1254,65.70290098083495,50.1236,66.92106098083497,49.8216L75.82817098083495,47.611C79.09607098083497,49.1041,82.65177098083495,49.8765,86.25007098083496,49.875C100.14347098083496,49.875,111.40627098083496,38.7101,111.40627098083496,24.9375C111.40627098083496,11.1649,100.14347098083496,0,86.25007098083496,0ZM86.25007098083496,46.3125C82.97387098083496,46.3123,79.74167098083495,45.5645,76.80387098083496,44.1269C76.42317098083495,43.9429,75.98917098083496,43.8981,75.57837098083496,44.0004L68.57059098083496,45.7407L69.35942098083495,39.0094C69.41250098083496,38.5565,69.28839098083496,38.1007,69.01262098083497,37.7358C66.20127098083496,34.0516,64.68239098083497,29.5571,64.68755098083496,24.9375C64.68755098083496,13.1324,74.34137098083497,3.5625,86.25007098083496,3.5625C98.15867098083496,3.5625,107.81257098083496,13.1324,107.81257098083496,24.9375C107.81257098083496,36.7426,98.15867098083496,46.3125,86.25007098083496,46.3125Z" fill="#FBE842" fill-opacity="1"/></g><g><path d="M75.46877598083496,19.59375L82.65627598083496,19.59375C83.64865598083496,19.59375,84.45309598083496,18.79626,84.45309598083496,17.8125C84.45309598083496,16.828742,83.64865598083496,16.03125,82.65627598083496,16.03125L75.46877598083496,16.03125C74.47638498083496,16.03125,73.67189598083496,16.828742,73.67189598083496,17.8125C73.67189598083496,18.79626,74.47638498083496,19.59375,75.46877598083496,19.59375Z" fill="#FBE842" fill-opacity="1"/></g><g><path d="M97.03129598083495,23.15625L75.46877598083496,23.15625C74.47638498083496,23.15625,73.67189598083496,23.953742,73.67189598083496,24.9375C73.67189598083496,25.92126,74.47638498083496,26.71875,75.46877598083496,26.71875L97.03129598083495,26.71875C98.02369598083496,26.71875,98.82809598083496,25.92126,98.82809598083496,24.9375C98.82809598083496,23.953742,98.02369598083496,23.15625,97.03129598083495,23.15625Z" fill="#FBE842" fill-opacity="1"/></g><g><path d="M97.03129598083495,30.28125L75.46877598083496,30.28125C74.47638498083496,30.28125,73.67189598083496,31.078742,73.67189598083496,32.0625C73.67189598083496,33.046260000000004,74.47638498083496,33.84375,75.46877598083496,33.84375L97.03129598083495,33.84375C98.02369598083496,33.84375,98.82809598083496,33.046260000000004,98.82809598083496,32.0625C98.82809598083496,31.078742,98.02369598083496,30.28125,97.03129598083495,30.28125Z" fill="#FBE842" fill-opacity="1"/></g></g></g></g></svg>