<svg xmlns="http://www.w3.org/2000/svg" xmlns:xlink="http://www.w3.org/1999/xlink" fill="none" version="1.1" width="1280" height="668" viewBox="0 0 1280 668"><defs><clipPath id="master_svg0_609_02889"><rect x="0" y="0" width="1280" height="668" rx="0"/></clipPath></defs><g clip-path="url(#master_svg0_609_02889)"><g transform="matrix(0.9206045866012573,0.39064329862594604,-0.3908189833164215,0.9204050302505493,36.5111464971651,-130.36724656527076)" style="opacity:0.8799999952316284;"><ellipse cx="340.13147020339966" cy="26.00006854534149" rx="1.3931889533996582" ry="1.3930739164352417" fill="#FFFFFF" fill-opacity="0.5" style="mix-blend-mode:passthrough"/></g><g transform="matrix(-0.9659258127212524,-0.2587701678276062,0.25886788964271545,-0.9659258127212524,712.5149703758962,129.9686678585058)" style="opacity:0.8600000143051147;"><ellipse cx="365.7066556215286" cy="18.982979595661163" rx="0.8922024965286255" ry="0.8919761776924133" fill="#FFFFFF" fill-opacity="0.5" style="mix-blend-mode:passthrough"/></g><g transform="matrix(0.9902680516242981,0.13917626440525055,-0.13916994631290436,0.9902680516242981,11.889456991458246,-23.06771208048667)" style="opacity:0.7200000286102295;"><ellipse cx="171.88506245613098" cy="74.48352384567261" rx="1.0022499561309814" ry="1.0018954277038574" fill="#FFFFFF" fill-opacity="0.5" style="mix-blend-mode:passthrough"/></g><g transform="matrix(0.8387425541877747,0.5445282459259033,-0.5447497963905334,0.8385986089706421,79.34171901250738,-166.51152836696565)" style="opacity:0.7900000214576721;"><ellipse cx="321.65572452545166" cy="51.5239160656929" rx="0.8432245254516602" ry="0.8431909680366516" fill="#FFFFFF" fill-opacity="0.7799999713897705" style="mix-blend-mode:passthrough"/></g><g transform="matrix(0.9563047289848328,0.2923524081707001,-0.29239100217819214,0.9563047289848328,41.86733108940825,-105.45872045897704)" style="opacity:0.7400000095367432;"><ellipse cx="374.84064841270447" cy="88.39483165740967" rx="1.0633046627044678" ry="1.063044548034668" fill="#FFFFFF" fill-opacity="0.7799999713897705" style="mix-blend-mode:passthrough"/></g><g transform="matrix(-0.06975647062063217,-0.9975640773773193,0.9975640773773193,-0.06975647062063217,510.53234623526805,624.6787422597481)" style="opacity:0.8199999928474426;"><ellipse cx="547.382616519928" cy="75.15538835525513" rx="0.8552727699279785" ry="0.855583667755127" fill="#FFFFFF" fill-opacity="0.5" style="mix-blend-mode:passthrough"/></g><g transform="matrix(0.9975640773773193,-0.06975652277469635,0.06975652277469635,0.9975640773773193,-14.688005616577357,89.45958046958549)" style="opacity:0.8199999928474426;"><ellipse cx="1274.404100894928" cy="255.88939714431763" rx="0.8552727699279785" ry="0.855583667755127" fill="#FFFFFF" fill-opacity="0.5" style="mix-blend-mode:passthrough"/></g><g transform="matrix(0.9975640773773193,-0.06975652277469635,0.06975652277469635,0.9975640773773193,-20.220449944647044,7.0301790867815726)" style="opacity:0.8199999928474426;"><ellipse cx="91.40410089492798" cy="293.8893971443176" rx="0.8552727699279785" ry="0.855583667755127" fill="#FFFFFF" fill-opacity="0.5" style="mix-blend-mode:passthrough"/></g><g transform="matrix(0.6692662239074707,-0.7430226802825928,0.7432669401168823,0.6689950227737427,151.81671537282818,506.0217944643373)" style="opacity:0.9399999976158142;"><ellipse cx="645.3067409992218" cy="83.44435262680054" rx="1.0020534992218018" ry="1.002091884613037" fill="#FFFFFF" fill-opacity="0.5" style="mix-blend-mode:passthrough"/></g><g transform="matrix(0.7430227398872375,0.6692661643028259,-0.6689949631690979,0.7432669997215271,561.2100200977075,-756.3166274563046)" style="opacity:0.9399999976158142;"><ellipse cx="1266.4102566242218" cy="353.81324911117554" rx="1.0020534992218018" ry="1.002091884613037" fill="#FFFFFF" fill-opacity="0.5" style="mix-blend-mode:passthrough"/></g><g transform="matrix(0.7430227398872375,0.6692661643028259,-0.6689949631690979,0.7432669997215271,282.6277299847352,45.181098924520484)" style="opacity:0.9399999976158142;"><ellipse cx="83.4102566242218" cy="391.81324911117554" rx="1.0020534992218018" ry="1.002091884613037" fill="#FFFFFF" fill-opacity="0.5" style="mix-blend-mode:passthrough"/></g><g transform="matrix(-0.8291115164756775,-0.5590833425521851,0.5593025088310242,-0.8289636373519897,1500.124024115892,587.5621985575199)" style="opacity:0.9900000095367432;"><ellipse cx="841.1747822761536" cy="65.82849740982056" rx="1.3075947761535645" ry="1.3075623512268066" fill="#FFFFFF" fill-opacity="0.5" style="mix-blend-mode:passthrough"/></g><g transform="matrix(0.5590832829475403,-0.8291115760803223,0.8289636969566345,0.5593024492263794,111.25896956792712,1305.6891319954739)" style="opacity:0.9900000095367432;"><ellipse cx="1284.6357197761536" cy="549.6812195777893" rx="1.3075947761535645" ry="1.3075623512268066" fill="#FFFFFF" fill-opacity="0.5" style="mix-blend-mode:passthrough"/></g><g transform="matrix(0.5590832829475403,-0.8291115760803223,0.8289636969566345,0.5593024492263794,-441.84612718948483,341.5966444218502)" style="opacity:0.9900000095367432;"><ellipse cx="101.63571977615356" cy="587.6812195777893" rx="1.3075947761535645" ry="1.3075623512268066" fill="#FFFFFF" fill-opacity="0.5" style="mix-blend-mode:passthrough"/></g><g transform="matrix(-0.7194671630859375,-0.6945264339447021,0.6947903037071228,-0.7192123532295227,1603.6913999465323,825.6656537775561)" style="opacity:0.8899999856948853;"><ellipse cx="969.3587307929993" cy="89.7036919593811" rx="0.7454495429992676" ry="0.7454400062561035" fill="#FFFFFF" fill-opacity="0.5" style="mix-blend-mode:passthrough"/></g><g transform="matrix(0.6945263743400574,-0.7194672226905823,0.7192124128341675,0.694790244102478,-102.43504634946294,1112.3940955489088)" style="opacity:0.8899999856948853;"><ellipse cx="1259.6360745429993" cy="677.8651909828186" rx="0.7454495429992676" ry="0.7454400062561035" fill="#FFFFFF" fill-opacity="0.5" style="mix-blend-mode:passthrough"/></g><g transform="matrix(0.6945263743400574,-0.7194672226905823,0.7192124128341675,0.694790244102478,-385.25228336321015,198.3013190865604)" style="opacity:0.8899999856948853;"><ellipse cx="41.74544954299927" cy="553.8180718421936" rx="0.7454495429992676" ry="0.7454400062561035" fill="#FFFFFF" fill-opacity="0.5" style="mix-blend-mode:passthrough"/></g><g transform="matrix(-0.03489949554204941,0.9993908405303955,-0.9993908405303955,-0.03489949554204941,1204.6499589247105,-1050.5601225330429)" style="opacity:0.7799999713897705;"><ellipse cx="1110.840502858162" cy="57.63735044002533" rx="1.2584716081619263" ry="1.2589324712753296" fill="#FFFFFF" fill-opacity="0.5" style="mix-blend-mode:passthrough"/></g><g transform="matrix(-0.9993908405303955,-0.03489955887198448,0.03489955887198448,-0.9993908405303955,2553.6037668391496,1680.7504134309347)" style="opacity:0.7799999713897705;"><ellipse cx="1292.729174733162" cy="819.3474334478378" rx="1.2584716081619263" ry="1.2589324712753296" fill="#FFFFFF" fill-opacity="0.5" style="mix-blend-mode:passthrough"/></g><g transform="matrix(-0.9993908405303955,-0.03489955887198448,0.03489955887198448,-0.9993908405303955,52.06285256708429,972.1171437211306)" style="opacity:0.7799999713897705;"><ellipse cx="35.774096608161926" cy="486.8631194829941" rx="1.2584716081619263" ry="1.2589324712753296" fill="#FFFFFF" fill-opacity="0.5" style="mix-blend-mode:passthrough"/></g><g transform="matrix(-0.3255904018878937,-0.9455072283744812,0.9455299377441406,-0.3255459666252136,112.05854131269734,319.7471393906417)" style="opacity:0.75;"><ellipse cx="170.94617021083832" cy="120.79141175746918" rx="0.8797639608383179" ry="0.8799737691879272" fill="#FFFFFF" fill-opacity="0.7799999713897705" style="mix-blend-mode:passthrough"/></g><g transform="matrix(0.9455072283744812,-0.32559046149253845,0.3255460262298584,0.9455299377441406,106.44383546026074,393.19059430388734)" style="opacity:0.75;"><ellipse cx="1228.8172639608383" cy="-120.54715025424957" rx="0.8797639608383179" ry="0.8799737691879272" fill="#FFFFFF" fill-opacity="0.7799999713897705" style="mix-blend-mode:passthrough"/></g><g transform="matrix(0.9455072283744812,-0.32559046149253845,0.3255460262298584,0.9455299377441406,29.608137630537385,10.086940723937005)" style="opacity:0.75;"><ellipse cx="45.81726396083832" cy="-82.54715025424957" rx="0.8797639608383179" ry="0.8799737691879272" fill="#FFFFFF" fill-opacity="0.7799999713897705" style="mix-blend-mode:passthrough"/></g><g transform="matrix(0.848201334476471,-0.5297793745994568,0.5300591588020325,0.8478947877883911,-16.59332541195181,182.15414417705324)"><ellipse cx="310.29450488090515" cy="120.80351656675339" rx="0.8921611309051514" ry="0.8920175433158875" fill="#FFFFFF" fill-opacity="0.5" style="mix-blend-mode:passthrough"/></g><g transform="matrix(0.5297794342041016,0.848201334476471,-0.8478947877883911,0.5300592184066772,592.5862556142529,-1033.1221443511167)"><ellipse cx="1228.8296611309052" cy="18.800831019878387" rx="0.8921611309051514" ry="0.8920175433158875" fill="#FFFFFF" fill-opacity="0.5" style="mix-blend-mode:passthrough"/></g><g transform="matrix(0.5297794342041016,0.848201334476471,-0.8478947877883911,0.5300592184066772,68.53532821366389,-11.842215964905336)"><ellipse cx="45.82966113090515" cy="56.80083101987839" rx="0.8921611309051514" ry="0.8920175433158875" fill="#FFFFFF" fill-opacity="0.5" style="mix-blend-mode:passthrough"/></g><g transform="matrix(0.3746946454048157,0.9270753860473633,-0.9272921681404114,0.374518483877182,398.78296703088563,-325.3100068909698)" style="opacity:0.7300000190734863;"><ellipse cx="441.730188369751" cy="134.0799150466919" rx="1.1364383697509766" ry="1.1365556716918945" fill="#FFFFFF" fill-opacity="0.5" style="mix-blend-mode:passthrough"/></g><g transform="matrix(-0.9270753264427185,0.3746947944164276,-0.37451863288879395,-0.9272921085357666,2397.05666877146,-167.85937071903027)" style="opacity:0.7300000190734863;"><ellipse cx="1216.042688369751" cy="150.2367753982544" rx="1.1364383697509766" ry="1.1365556716918945" fill="#FFFFFF" fill-opacity="0.5" style="mix-blend-mode:passthrough"/></g><g transform="matrix(-0.9270753264427185,0.3746947944164276,-0.37451863288879395,-0.9272921085357666,131.55826563949813,348.64167119996273)" style="opacity:0.7300000190734863;"><ellipse cx="33.04268836975098" cy="188.2367753982544" rx="1.1364383697509766" ry="1.1365556716918945" fill="#FFFFFF" fill-opacity="0.5" style="mix-blend-mode:passthrough"/></g><g transform="matrix(-0.406861275434494,0.9134481549263,-0.9136426448822021,-0.4066120982170105,1004.9663934388664,-354.05536429281346)" style="opacity:0.8199999928474426;"><ellipse cx="618.843669295311" cy="150.6682391166687" rx="1.4296067953109741" ry="1.4299578666687012" fill="#FFFFFF" fill-opacity="0.5" style="mix-blend-mode:passthrough"/></g><g transform="matrix(-0.9134481549263,-0.4068613350391388,0.4066121578216553,-0.9136426448822021,2160.9573833875183,1111.3640344654268)" style="opacity:0.8199999928474426;"><ellipse cx="1200.040934920311" cy="327.3504900932312" rx="1.4296067953109741" ry="1.4299578666687012" fill="#FFFFFF" fill-opacity="0.5" style="mix-blend-mode:passthrough"/></g><g transform="matrix(-0.9134481549263,-0.4068613350391388,0.4066121578216553,-0.9136426448822021,-118.10304588751751,702.7654956196493)" style="opacity:0.8199999928474426;"><ellipse cx="17.040934920310974" cy="365.3504900932312" rx="1.4296067953109741" ry="1.4299578666687012" fill="#FFFFFF" fill-opacity="0.5" style="mix-blend-mode:passthrough"/></g><g transform="matrix(-0.13916996121406555,0.9902680516242981,-0.9902680516242981,-0.13917626440525055,960.8042998820383,-613.3145008267511)" style="opacity:0.8600000143051147;"><ellipse cx="748.4183152914047" cy="112.39306855201721" rx="1.4417527914047241" ry="1.442262887954712" fill="#FFFFFF" fill-opacity="0.5" style="mix-blend-mode:passthrough"/></g><g transform="matrix(-0.8747134208679199,0.48470795154571533,-0.4849112629890442,-0.8745259642601013,1602.422412089225,-135.40273170639557)" style="opacity:0.8999999761581421;"><ellipse cx="819.5268236398697" cy="140.3022921681404" rx="0.8432298898696899" ry="0.8431857228279114" fill="#FFFFFF" fill-opacity="0.5" style="mix-blend-mode:passthrough"/></g><g transform="matrix(-0.848201334476471,-0.5297794342041016,0.5300590991973877,-0.8478947877883911,1880.2180413678725,801.5680407286927)" style="opacity:0.9200000166893005;"><ellipse cx="1056.3409519195557" cy="132.67282593250275" rx="1.356576919555664" ry="1.3563586473464966" fill="#FFFFFF" fill-opacity="0.7799999713897705" style="mix-blend-mode:passthrough"/></g><g transform="matrix(0.7072365283966064,-0.7069770097732544,0.7072365283966064,0.7069770097732544,235.32154462998733,850.5608406534884)" style="opacity:0.7900000214576721;"><ellipse cx="1145.56011146307" cy="142.02690833806992" rx="0.9409708380699158" ry="0.9409708380699158" fill="#FFFFFF" fill-opacity="0.5" style="mix-blend-mode:passthrough"/></g><g transform="matrix(-0.9563047289848328,-0.2923523783683777,0.29239100217819214,-0.9563047289848328,131.92797678808347,389.87622607632875)" style="opacity:0.9700000286102295;"><ellipse cx="96.26069045066833" cy="186.24118030071259" rx="1.161081075668335" ry="1.1607969999313354" fill="#FFFFFF" fill-opacity="0.5" style="mix-blend-mode:passthrough"/></g><g transform="matrix(0.8291114568710327,0.5590834021568298,-0.5593024492263794,0.8289636969566345,146.33870426009526,-103.55207995673118)" style="opacity:0.8500000238418579;"><ellipse cx="243.31917089223862" cy="188.2588500380516" rx="0.7332333922386169" ry="0.7332152724266052" fill="#FFFFFF" fill-opacity="0.5" style="mix-blend-mode:passthrough"/></g><g transform="matrix(-0.788090705871582,0.6155591607093811,-0.6157638430595398,-0.7879307866096497,796.5932821514252,66.57885878648449)" style="opacity:0.949999988079071;"><ellipse cx="388.28087401390076" cy="171.87913024425507" rx="1.4664208889007568" ry="1.466471552848816" fill="#FFFFFF" fill-opacity="0.5" style="mix-blend-mode:passthrough"/></g><g transform="matrix(-0.9659258127212524,0.2587701976299286,-0.25886785984039307,-0.9659258127212524,1107.538677372504,196.67821929208003)" style="opacity:0.8999999761581421;"><ellipse cx="541.6391834020615" cy="172.04913192987442" rx="0.8188709020614624" ry="0.8186631798744202" fill="#FFFFFF" fill-opacity="0.5" style="mix-blend-mode:passthrough"/></g><g transform="matrix(-0.4849112629890442,-0.8745259046554565,0.8747134208679199,-0.4847079813480377,851.5881505372527,827.6901675408826)" style="opacity:0.8100000023841858;"><ellipse cx="670.9575482606888" cy="164.48160791397095" rx="1.3930951356887817" ry="1.3931679725646973" fill="#FFFFFF" fill-opacity="0.5" style="mix-blend-mode:passthrough"/></g><g transform="matrix(0.9397050738334656,0.34192803502082825,-0.3421122431755066,0.9396801590919495,114.3477269490395,-292.89039997609507)" style="opacity:0.7699999809265137;"><ellipse cx="888.6869150400162" cy="178.49220699071884" rx="0.7455087900161743" ry="0.7453808188438416" fill="#FFFFFF" fill-opacity="0.5" style="mix-blend-mode:passthrough"/></g><g transform="matrix(0.9612616896629333,-0.2756180763244629,0.27565667033195496,0.9612616896629333,-14.011106283578556,290.01199259550776)" style="opacity:0.7599999904632568;"><ellipse cx="1025.5712094306946" cy="195.58273923397064" rx="0.7333188056945801" ry="0.7331298589706421" fill="#FFFFFF" fill-opacity="0.5" style="mix-blend-mode:passthrough"/></g><g transform="matrix(0.9064421057701111,-0.42250707745552063,0.42272937297821045,0.9061732888221741,27.822574889927637,494.7020010132401)" style="opacity:0.949999988079071;"><ellipse cx="1131.0652698278427" cy="185.3751516342163" rx="1.1121448278427124" ry="1.1119680404663086" fill="#FFFFFF" fill-opacity="0.5" style="mix-blend-mode:passthrough"/></g><g transform="matrix(-0.9998477101325989,0.017452405765652657,-0.017452405765652657,-0.9998477101325989,280.5935912187374,460.5742496220082)" style="opacity:0.7400000095367432;"><ellipse cx="139.15491712093353" cy="232.3789640069008" rx="0.8678077459335327" ry="0.8674893975257874" fill="#FFFFFF" fill-opacity="0.5" style="mix-blend-mode:passthrough"/></g><g transform="matrix(0.891152560710907,-0.45388761162757874,0.45409342646598816,0.890860378742218,-81.498247498821,117.26550986483926)" style="opacity:0.7099999785423279;"><ellipse cx="204.47672533988953" cy="229.2500762939453" rx="1.0021159648895264" ry="1.0020294189453125" fill="#FFFFFF" fill-opacity="0.5" style="mix-blend-mode:passthrough"/></g><g transform="matrix(-0.3584558665752411,-0.9334795475006104,0.9336811900138855,-0.3582800626754761,440.1380696554479,750.7714698639029)" style="opacity:0.8899999856948853;"><ellipse cx="479.1656732559204" cy="225.26480662822723" rx="1.0875482559204102" ry="1.0876826047897339" fill="#FFFFFF" fill-opacity="0.5" style="mix-blend-mode:passthrough"/></g><g transform="matrix(-0.9455298781394958,-0.32554590702056885,0.3255904018878937,-0.9455072283744812,984.4376623438075,668.4561250392435)" style="opacity:0.7900000214576721;"><ellipse cx="549.4459109306335" cy="253.16166651248932" rx="1.295520305633545" ry="1.2952114343643188" fill="#FFFFFF" fill-opacity="0.5" style="mix-blend-mode:passthrough"/></g><g transform="matrix(-0.9397050142288208,-0.341928094625473,0.342112272977829,-0.9396801590919495,1261.779022495597,761.9980712277174)" style="opacity:0.9100000262260437;"><ellipse cx="698.8172715902328" cy="270.521735727787" rx="0.7332872152328491" ry="0.7331615090370178" fill="#FFFFFF" fill-opacity="0.5" style="mix-blend-mode:passthrough"/></g><g transform="matrix(0.7548288106918335,0.6559218764305115,-0.656196117401123,0.7545903325080872,353.21551485484815,-496.4075418095781)" style="opacity:0.9100000262260437;"><ellipse cx="841.7467956542969" cy="225.24021065235138" rx="1.063201904296875" ry="1.0631476640701294" fill="#FFFFFF" fill-opacity="0.5" style="mix-blend-mode:passthrough"/></g><g transform="matrix(-0.9902680516242981,-0.13917624950408936,0.13916994631290436,-0.9902680516242981,1839.5685127549104,627.4814521296685)" style="opacity:0.7300000190734863;"><ellipse cx="942.7982414960861" cy="250.4968967437744" rx="1.0755852460861206" ry="1.075204849243164" fill="#FFFFFF" fill-opacity="0.7799999713897705" style="mix-blend-mode:passthrough"/></g><g transform="matrix(0.43848326802253723,0.8986512422561646,-0.8989367485046387,0.43825897574424744,879.2987823069416,-883.833794483281)" style="opacity:0.9800000190734863;"><ellipse cx="1147.8465024232864" cy="262.42782282829285" rx="0.782049298286438" ry="0.7821624279022217" fill="#FFFFFF" fill-opacity="0.5" style="mix-blend-mode:passthrough"/></g><g transform="matrix(-0.6947903037071228,-0.7192123532295227,0.7194671034812927,-0.6945264339447021,-9.419305215860732,600.6926592013697)" style="opacity:0.8600000143051147;"><ellipse cx="124.25695860385895" cy="303.8227425813675" rx="1.4542242288589478" ry="1.4542428255081177" fill="#FFFFFF" fill-opacity="0.7799999713897705" style="mix-blend-mode:passthrough"/></g><g transform="matrix(0.7548288106918335,-0.6559218764305115,0.656196117401123,0.7545903325080872,-128.84513520669134,222.84620684013316)" style="opacity:0.7200000286102295;"><ellipse cx="234.62514519691467" cy="284.6409937143326" rx="1.0020983219146729" ry="1.0020471811294556" fill="#FFFFFF" fill-opacity="0.7799999713897705" style="mix-blend-mode:passthrough"/></g><g transform="matrix(0.6429260969161987,-0.7659282684326172,0.7661605477333069,0.6426491737365723,-78.0478113791778,457.1234246009699)" style="opacity:0.800000011920929;"><ellipse cx="452.40950202941895" cy="313.36957144737244" rx="1.2220020294189453" ry="1.2220799922943115" fill="#FFFFFF" fill-opacity="0.5" style="mix-blend-mode:passthrough"/></g><g transform="matrix(0.5447498559951782,-0.8385986089706421,0.8387424945831299,0.5445281863212585,25.224000066533335,661.1277577647379)" style="opacity:0.8600000143051147;"><ellipse cx="622.272324681282" cy="308.03914052248" rx="0.7820903062820435" ry="0.782121479511261" fill="#FFFFFF" fill-opacity="0.5" style="mix-blend-mode:passthrough"/></g><g transform="matrix(-0.3584558665752411,-0.9334795475006104,0.9336811900138855,-0.35828012228012085,603.6100499361619,1074.8731757066798)" style="opacity:0.7400000095367432;"><ellipse cx="672.4294975996017" cy="331.30327665805817" rx="1.2341850996017456" ry="1.2343374490737915" fill="#FFFFFF" fill-opacity="0.5" style="mix-blend-mode:passthrough"/></g><g transform="matrix(0.9986295104026794,0.0523359552025795,-0.0523359552025795,0.9986295104026794,17.35149514195382,-46.475401683659584)" style="opacity:0.9599999785423279;"><ellipse cx="896.8456939458847" cy="308.83284413814545" rx="0.7578033208847046" ry="0.7575267553329468" fill="#FFFFFF" fill-opacity="0.5" style="mix-blend-mode:passthrough"/></g><g transform="matrix(-0.9743700623512268,-0.22481365501880646,0.22508853673934937,-0.9743700623512268,1823.9772416732376,807.5569427182127)" style="opacity:0.7799999713897705;"><ellipse cx="959.1214677095413" cy="301.0336483716965" rx="1.0999833345413208" ry="1.0996884107589722" fill="#FFFFFF" fill-opacity="0.5" style="mix-blend-mode:passthrough"/></g><g transform="matrix(0.25886785984039307,0.9659258127212524,-0.9659258127212524,0.2587701976299286,1124.2351142722255,-821.3541372259115)" style="opacity:0.7699999809265137;"><ellipse cx="1098.3002264499664" cy="322.85692274570465" rx="0.9408514499664307" ry="0.9410902261734009" fill="#FFFFFF" fill-opacity="0.5" style="mix-blend-mode:passthrough"/></g><g transform="matrix(-0.7548287510871887,0.6559218764305115,-0.6561961770057678,-0.7545902729034424,445.78114106766407,570.0371855438789)" style="opacity:0.7900000214576721;"><ellipse cx="117.27894020080566" cy="369.34575366973877" rx="0.9898777008056641" ry="0.9898271560668945" fill="#FFFFFF" fill-opacity="0.5" style="mix-blend-mode:passthrough"/></g><g transform="matrix(0.24206851422786713,0.9702957272529602,-0.9702957272529602,0.24177537858486176,587.1456005220989,27.553544185213923)" style="opacity:0.7799999713897705;"><ellipse cx="276.88807022571564" cy="390.42238414287567" rx="0.8919764757156372" ry="0.8922022581100464" fill="#FFFFFF" fill-opacity="0.5" style="mix-blend-mode:passthrough"/></g><g transform="matrix(0.6429260969161987,-0.7659282088279724,0.7661605477333069,0.642649233341217,-91.41579795378675,495.2701724198687)" style="opacity:0.7599999904632568;"><ellipse cx="486.8521182537079" cy="346.98725044727325" rx="1.4419620037078857" ry="1.4420539140701294" fill="#FFFFFF" fill-opacity="0.5" style="mix-blend-mode:passthrough"/></g><g transform="matrix(0.15653268992900848,0.9876883625984192,-0.9876883625984192,0.15633629262447357,817.8822057355319,-173.68793532944892)" style="opacity:0.7799999713897705;"><ellipse cx="511.8551118373871" cy="393.16023766994476" rx="1.185189962387085" ry="1.1855672597885132" fill="#FFFFFF" fill-opacity="0.5" style="mix-blend-mode:passthrough"/></g><g transform="matrix(0.9961947202682495,-0.08715574443340302,0.08715574443340302,0.9961947202682495,-30.854882484521568,62.59014516460957)" style="opacity:0.8399999737739563;"><ellipse cx="702.1054582595825" cy="385.3989161849022" rx="0.7578020095825195" ry="0.7575282454490662" fill="#FFFFFF" fill-opacity="0.5" style="mix-blend-mode:passthrough"/></g><g transform="matrix(0.9206045269966125,-0.39064329862594604,0.3908189535140991,0.9204050302505493,-78.858666258413,361.0452069668245)"><ellipse cx="848.9708086848259" cy="375.00722908973694" rx="0.9532305598258972" ry="0.9531519412994385" fill="#FFFFFF" fill-opacity="0.5" style="mix-blend-mode:passthrough"/></g><g transform="matrix(-0.9986295104026794,-0.0523359552025795,0.0523359552025795,-0.9986295104026794,2037.6053124983068,772.1279260308838)" style="opacity:0.8299999833106995;"><ellipse cx="1029.9021422863007" cy="360.3753529191017" rx="0.9900329113006592" ry="0.9896717667579651" fill="#FFFFFF" fill-opacity="0.7799999713897705" style="mix-blend-mode:passthrough"/></g><g transform="matrix(0.9272921681404114,0.3745184540748596,-0.37469467520713806,0.9270753860473633,216.19179397650805,-388.8668601406971)" style="opacity:0.7900000214576721;"><ellipse cx="1109.731086552143" cy="362.79556196928024" rx="0.9654615521430969" ry="0.9653617739677429" fill="#FFFFFF" fill-opacity="0.5" style="mix-blend-mode:passthrough"/></g><g transform="matrix(-0.9925461411476135,-0.12187212705612183,0.12186657637357712,-0.9925461411476135,118.1104202005422,885.641462060139)" style="opacity:0.800000011920929;"><ellipse cx="87.20203626155853" cy="440.27166426181793" rx="1.0633643865585327" ry="1.0629850625991821" fill="#FFFFFF" fill-opacity="0.5" style="mix-blend-mode:passthrough"/></g><g transform="matrix(0.9816271662712097,-0.1907634288072586,0.19085462391376495,0.9816271662712097,-79.16481630245607,58.09212931535694)" style="opacity:0.7300000190734863;"><ellipse cx="262.9878751039505" cy="440.86989653110504" rx="0.8433438539505005" ry="0.8430715799331665" fill="#FFFFFF" fill-opacity="0.5" style="mix-blend-mode:passthrough"/></g><g transform="matrix(0.6947903633117676,0.7192122936248779,-0.7194672226905823,0.6945264935493469,477.69607162326247,-212.65229470754093)" style="opacity:0.8500000238418579;"><ellipse cx="490.7064081430435" cy="457.5329313278198" rx="1.222033143043518" ry="1.2220487594604492" fill="#FFFFFF" fill-opacity="0.5" style="mix-blend-mode:passthrough"/></g><g transform="matrix(-0.9612616896629333,0.2756180763244629,-0.27565664052963257,-0.9612616896629333,1256.6137122313867,711.6014507411946)" style="opacity:0.9100000262260437;"><ellipse cx="579.3254739046097" cy="445.1237019300461" rx="1.0266457796096802" ry="1.0263813734054565" fill="#FFFFFF" fill-opacity="0.7799999713897705" style="mix-blend-mode:passthrough"/></g><g transform="matrix(-0.0523359552025795,-0.9986295104026794,0.9986295104026794,-0.0523359552025795,390.9707193392751,1177.749509645214)" style="opacity:0.9900000095367432;"><ellipse cx="755.4673664569855" cy="404.5272384881973" rx="1.1607258319854736" ry="1.1611496210098267" fill="#FFFFFF" fill-opacity="0.5" style="mix-blend-mode:passthrough"/></g><g transform="matrix(0.24206849932670593,0.9702957272529602,-0.9702957272529602,0.24177536368370056,1062.2853805875293,-561.183899198858)" style="opacity:0.949999988079071;"><ellipse cx="891.2298197746277" cy="400.1372902393341" rx="0.8431010246276855" ry="0.8433144092559814" fill="#FFFFFF" fill-opacity="0.5" style="mix-blend-mode:passthrough"/></g><g transform="matrix(-0.6294598579406738,0.7770330309867859,-0.7772589325904846,-0.6291808485984802,1927.6057846169024,-37.59443116939292)" style="opacity:0.7300000190734863;"><ellipse cx="974.031690955162" cy="442.1890811920166" rx="1.3441909551620483" ry="1.3442935943603516" fill="#FFFFFF" fill-opacity="0.5" style="mix-blend-mode:passthrough"/></g><g transform="matrix(-0.5593023896217346,-0.8289636373519897,0.8291114568710327,-0.5590834021568298,1502.0550196821096,1621.5185243947944)" style="opacity:0.9800000190734863;"><ellipse cx="1183.311368227005" cy="412.73324251174927" rx="1.2098057270050049" ry="1.2098355293273926" fill="#FFFFFF" fill-opacity="0.5" style="mix-blend-mode:passthrough"/></g><g transform="matrix(0.03489949554204941,0.9993908405303955,-0.9993908405303955,0.03489949554204941,686.4041095493594,304.4878938260349)" style="opacity:0.8999999761581421;"><ellipse cx="186.9050476551056" cy="508.9967918395996" rx="1.3562195301055908" ry="1.3567161560058594" fill="#FFFFFF" fill-opacity="0.5" style="mix-blend-mode:passthrough"/></g><g transform="matrix(-0.469573974609375,0.8827937841415405,-0.883101224899292,-0.469369113445282,874.9601718443955,483.0848838400543)" style="opacity:0.8299999833106995;"><ellipse cx="293.61077404022217" cy="505.6979321241379" rx="1.319758415222168" ry="1.3198498487472534" fill="#FFFFFF" fill-opacity="0.7799999713897705" style="mix-blend-mode:passthrough"/></g><g transform="matrix(-0.6157637238502502,0.7879309058189392,-0.788090705871582,-0.6155591011047363,1011.1887413035729,526.9781231590023)" style="opacity:0.7400000095367432;"><ellipse cx="378.1369643211365" cy="511.17543947696686" rx="1.0998549461364746" ry="1.099816918373108" fill="#FFFFFF" fill-opacity="0.5" style="mix-blend-mode:passthrough"/></g><g transform="matrix(0.7548288106918335,-0.6559218764305115,0.6561961770057678,0.7545903921127319,-205.7797972280423,473.3649417440829)" style="opacity:0.8899999856948853;"><ellipse cx="530.998420715332" cy="512.4713428616524" rx="0.7699050903320312" ry="0.7698658108711243" fill="#FFFFFF" fill-opacity="0.7799999713897705" style="mix-blend-mode:passthrough"/></g><g transform="matrix(-1,0,0,-1,1371.71875,968.024169921875)" style="opacity:0.7900000214576721;"><ellipse cx="686.8005185127258" cy="484.95288306474686" rx="0.9411435127258301" ry="0.9407981038093567" fill="#FFFFFF" fill-opacity="0.5" style="mix-blend-mode:passthrough"/></g><g transform="matrix(0,-1,1,0,819.1684875488281,1704.9330749511719)" style="opacity:0.7900000214576721;"><ellipse cx="1262.9919247627258" cy="443.82309180498123" rx="0.9411435127258301" ry="0.9407981038093567" fill="#FFFFFF" fill-opacity="0.5" style="mix-blend-mode:passthrough"/></g><g transform="matrix(0.7772589325904846,0.629180908203125,-0.629459798336029,0.7770329713821411,501.2995441790463,-416.5464550872457)" style="opacity:0.9700000286102295;"><ellipse cx="840.3237053155899" cy="500.7595520019531" rx="1.2709709405899048" ry="1.2708740234375" fill="#FFFFFF" fill-opacity="0.5" style="mix-blend-mode:passthrough"/></g><g transform="matrix(-0.6291808485984802,0.7772589921951294,-0.7770330309867859,-0.6294597387313843,2494.0653386644844,2.370306690747384)" style="opacity:0.9700000286102295;"><ellipse cx="1247.84518969059" cy="597.3465576171875" rx="1.2709709405899048" ry="1.2708740234375" fill="#FFFFFF" fill-opacity="0.5" style="mix-blend-mode:passthrough"/></g><g transform="matrix(0.9975640773773193,-0.06975647062063217,0.06975647062063217,0.9975640773773193,-31.948686785492328,72.69177429933188)" style="opacity:0.9900000095367432;"><ellipse cx="1026.082645893097" cy="495.0371183156967" rx="1.2467083930969238" ry="1.2462552785873413" fill="#FFFFFF" fill-opacity="0.5" style="mix-blend-mode:passthrough"/></g><g transform="matrix(0.2756566107273102,-0.9612616896629333,0.9612616896629333,0.2756180465221405,420.60923899778754,1490.386203739131)" style="opacity:0.7400000095367432;"><ellipse cx="1200.2534438371658" cy="467.1284979581833" rx="1.0386000871658325" ry="1.0388678312301636" fill="#FFFFFF" fill-opacity="0.5" style="mix-blend-mode:passthrough"/></g><g transform="matrix(-0.03489949554204941,-0.9993908405303955,0.9993908405303955,-0.03489949554204941,-325.5236296715739,788.8760854610605)" style="opacity:0.8299999833106995;"><ellipse cx="218.90010452270508" cy="552.3730992078781" rx="0.7575263977050781" ry="0.7578037977218628" fill="#FFFFFF" fill-opacity="0.5" style="mix-blend-mode:passthrough"/></g><g transform="matrix(-0.9510565400123596,-0.30899789929389954,0.3090360760688782,-0.9510565400123596,612.6828343282104,1180.7268009301624)" style="opacity:0.8999999761581421;"><ellipse cx="401.04930114746094" cy="543.0441416501999" rx="1.1977386474609375" ry="1.1974619626998901" fill="#FFFFFF" fill-opacity="0.5" style="mix-blend-mode:passthrough"/></g><g transform="matrix(0.9876883625984192,-0.15633629262447357,0.15653268992900848,0.9876883625984192,-81.39935036905354,105.44670009410402)" style="opacity:0.8899999856948853;"><ellipse cx="630.4169959425926" cy="570.3191518187523" rx="0.7822303175926208" ry="0.7819814085960388" fill="#FFFFFF" fill-opacity="0.7799999713897705" style="mix-blend-mode:passthrough"/></g><g transform="matrix(-0.4695739448070526,-0.8827938437461853,0.8831012845039368,-0.46936914324760437,610.8435815997109,1466.8455476551844)" style="opacity:0.9200000166893005;"><ellipse cx="747.1641474962234" cy="550.9920367002487" rx="1.0020381212234497" ry="1.0021075010299683" fill="#FFFFFF" fill-opacity="0.5" style="mix-blend-mode:passthrough"/></g><g transform="matrix(0.9272921681404114,0.374518483877182,-0.37469470500946045,0.9270753860473633,253.36331931592576,-263.8178353990661)" style="opacity:0.9599999785423279;"><ellipse cx="806.8035758733749" cy="521.0155531167984" rx="1.160997748374939" ry="1.1608778238296509" fill="#FFFFFF" fill-opacity="0.7799999713897705" style="mix-blend-mode:passthrough"/></g><g transform="matrix(-0.9455298781394958,0.3255460262298584,-0.3255904018878937,-0.9455072283744812,2027.3139853122284,713.5032449758837)" style="opacity:0.8600000143051147;"><ellipse cx="955.1450085639954" cy="527.5676356554031" rx="1.1977429389953613" ry="1.1974574327468872" fill="#FFFFFF" fill-opacity="0.7799999713897705" style="mix-blend-mode:passthrough"/></g><g transform="matrix(-0.43848323822021484,0.8986511826515198,-0.8989367485046387,-0.4382590353488922,2240.5428559191932,-260.72993520919226)" style="opacity:0.9100000262260437;"><ellipse cx="1202.538008570671" cy="570.416858792305" rx="0.8798054456710815" ry="0.8799325227737427" fill="#FFFFFF" fill-opacity="0.7799999713897705" style="mix-blend-mode:passthrough"/></g><g transform="matrix(-0.9064421057701111,0.422507107257843,-0.42272937297821045,-0.9061733484268188,621.3595914818725,1128.3644410284905)" style="opacity:0.7900000214576721;"><ellipse cx="186.50209510326385" cy="634.033071577549" rx="0.953266978263855" ry="0.9531155228614807" fill="#FFFFFF" fill-opacity="0.7799999713897705" style="mix-blend-mode:passthrough"/></g><g transform="matrix(0.8989367485046387,-0.4382590353488922,0.43848326802253723,0.8986511826515198,-241.48417049844466,178.32911039347164)" style="opacity:0.7200000286102295;"><ellipse cx="266.2558806538582" cy="612.7519118189812" rx="0.8554900288581848" ry="0.8553664088249207" fill="#FFFFFF" fill-opacity="0.5" style="mix-blend-mode:passthrough"/></g><g transform="matrix(-0.8911525011062622,0.45388758182525635,-0.454093337059021,-0.890860378742218,1169.0340715415878,926.8396386238055)" style="opacity:0.7900000214576721;"><ellipse cx="474.44820964336395" cy="605.0126152038574" rx="1.2587565183639526" ry="1.2586479187011719" fill="#FFFFFF" fill-opacity="0.5" style="mix-blend-mode:passthrough"/></g><g transform="matrix(0.9510565400123596,0.30899789929389954,-0.3090360760688782,0.9510565400123596,224.71478061799644,-146.03939266957968)" style="opacity:0.7799999713897705;"><ellipse cx="574.7829011678696" cy="637.7017133235931" rx="1.3688386678695679" ry="1.3685224056243896" fill="#FFFFFF" fill-opacity="0.5" style="mix-blend-mode:passthrough"/></g><g transform="matrix(-0.6947903037071228,-0.7192124128341675,0.7194671630859375,-0.6945264339447021,865.7689429401653,1644.8612061472813)" style="opacity:0.9100000262260437;"><ellipse cx="783.211264371872" cy="639.9762333631516" rx="1.1975924968719482" ry="1.1976078748703003" fill="#FFFFFF" fill-opacity="0.5" style="mix-blend-mode:passthrough"/></g><g transform="matrix(-0.8482012748718262,-0.5297793745994568,0.5300590991973877,-0.8478947877883911,1382.5365140597714,1678.6377474729888)" style="opacity:0.7300000190734863;"><ellipse cx="932.7030385136604" cy="641.980443418026" rx="0.7577260136604309" ry="0.7576040625572205" fill="#FFFFFF" fill-opacity="0.5" style="mix-blend-mode:passthrough"/></g><g transform="matrix(-0.43848326802253723,-0.8986511826515198,0.8989367485046387,-0.4382590055465698,897.9291010681773,1783.0149012572074)" style="opacity:0.9900000095367432;"><ellipse cx="1007.0102138519287" cy="611.993988931179" rx="0.9164638519287109" ry="0.9165963530540466" fill="#FFFFFF" fill-opacity="0.5" style="mix-blend-mode:passthrough"/></g><g transform="matrix(0.25886785984039307,-0.9659258127212524,0.9659258127212524,0.2587701976299286,-574.9671478143282,577.1566629619738)" style="opacity:0.7200000286102295;"><ellipse cx="89.52092957496643" cy="664.1563001871109" rx="0.9408514499664307" ry="0.9410902261734009" fill="#FFFFFF" fill-opacity="0.5" style="mix-blend-mode:passthrough"/></g><g transform="matrix(-0.4695740044116974,-0.8827938437461853,0.883101224899292,-0.469369113445282,-101.54876221364248,1280.0025721567436)" style="opacity:0.7900000214576721;"><ellipse cx="334.88635420799255" cy="671.5877201557159" rx="1.0386979579925537" ry="1.0387699604034424" fill="#FFFFFF" fill-opacity="0.5" style="mix-blend-mode:passthrough"/></g><g transform="matrix(-0.3255904018878937,-0.9455072283744812,0.9455299377441406,-0.32554593682289124,-41.49148192431312,1304.9552816324958)" style="opacity:0.8799999952316284;"><ellipse cx="446.06093406677246" cy="668.6794914007187" rx="1.392965316772461" ry="1.393297553062439" fill="#FFFFFF" fill-opacity="0.5" style="mix-blend-mode:passthrough"/></g><g transform="matrix(0.5593023896217346,-0.8289636969566345,0.8291115164756775,0.5590833425521851,-314.83703213512126,718.2345356394726)" style="opacity:0.9800000190734863;"><ellipse cx="518.7615619897842" cy="655.820479631424" rx="0.7576557397842407" ry="0.7576744556427002" fill="#FFFFFF" fill-opacity="0.5" style="mix-blend-mode:passthrough"/></g><g transform="matrix(0.9945219159126282,-0.10451676696538925,0.10454016923904419,0.9945219159126282,-64.5007379190356,81.1533961717796)" style="opacity:0.8199999928474426;"><ellipse cx="743.5159748792648" cy="657.3108751773834" rx="1.4300373792648315" ry="1.4295275211334229" fill="#FFFFFF" fill-opacity="0.5" style="mix-blend-mode:passthrough"/></g><g transform="matrix(0.9902680516242981,0.13917626440525055,-0.13916994631290436,0.9902680516242981,99.91451341858738,-110.5884475145649)" style="opacity:0.75;"><ellipse cx="841.6369536519051" cy="660.0969435572624" rx="0.9533599019050598" ry="0.9530226588249207" fill="#FFFFFF" fill-opacity="0.5" style="mix-blend-mode:passthrough"/></g><g transform="matrix(0.694790244102478,-0.7192123532295227,0.7194671630859375,0.6945264339447021,-166.34380035777576,907.3090619600698)" style="opacity:0.9100000262260437;"><ellipse cx="986.7999975681305" cy="650.4400870800018" rx="1.0753881931304932" ry="1.075402021408081" fill="#FFFFFF" fill-opacity="0.5" style="mix-blend-mode:passthrough"/></g><g transform="matrix(0.9206045866012573,-0.39064323902130127,0.39081889390945435,0.9204050898551941,-162.36177118462,490.09435915227004)"><ellipse cx="1124.8878872394562" cy="645.1212269067764" rx="1.4542934894561768" ry="1.4541736841201782" fill="#FFFFFF" fill-opacity="0.5" style="mix-blend-mode:passthrough"/></g></g></svg>