<svg xmlns="http://www.w3.org/2000/svg" xmlns:xlink="http://www.w3.org/1999/xlink" fill="none" version="1.1" width="676.031005859375" height="222.36366271972656" viewBox="0 0 676.031005859375 222.36366271972656"><defs><clipPath id="master_svg0_571_05106"><rect x="0" y="0" width="676.031005859375" height="222.36366271972656" rx="0"/></clipPath></defs><g clip-path="url(#master_svg0_571_05106)"><g><path d="M17.4012,112.55049438476563C9.0612,124.13049438476563,1.1612,137.1804943847656,0.111198,151.72049438476563C-1.5088,168.72049438476563,14.8712,176.8104943847656,29.6912,172.66049438476563L44.5412,190.27049438476564C47.1912,192.97049438476563,49.0612,196.94049438476563,52.8112,198.21049438476564C63.0912,202.92049438476562,70.2812,191.21049438476564,76.1112,184.85049438476562C69.5312,182.77049438476564,62.4712,177.01049438476562,57.3912,172.85049438476562Q51.8312,166.27049438476564,46.3412,159.71049438476564C43.4012,155.27049438476564,37.8412,151.95049438476562,32.5712,154.39049438476565C29.3012,151.61049438476562,25.1412,152.21049438476564,21.2212,152.51049438476562C22.7212,140.84049438476563,30.3612,130.60049438476562,37.1112,121.37049438476564C40.4812,114.37049438476564,36.7812,106.11049438476562,39.7612,98.97049438476563C44.0712,88.77049438476563,57.6212,84.67049438476562,67.0412,90.28049438476563C69.7212,85.79049438476562,72.9012,80.94049438476563,76.1112,76.43048438476562L76.1112,71.16049438476563C70.2807,68.18971438476562,63.8348,66.62789158476562,57.2912,66.60049438476562C34.2912,66.60049438476562,14.3712,86.44049438476563,17.4012,112.60049438476562" fill="#FFFFFF" fill-opacity="1" style="mix-blend-mode:passthrough"/></g><g><path d="M228.3310546875,71.16029724121094L228.3310546875,76.43028724121093C231.5310646875,80.94029724121094,234.7210646875,85.79029724121094,237.3910546875,90.28029724121095C246.8210546875,84.67029724121093,260.3910546875,88.77029724121094,264.6810546875,98.97029724121094C267.6810546875,106.11029724121093,263.9610546875,114.39029724121093,267.3310546875,121.37029724121093C274.0810546875,130.60029724121094,281.7210546875,140.84029724121092,283.2110546875,152.51029724121094C279.3010546875,152.21029724121092,275.1410546875,151.61029724121096,271.8610546875,154.39029724121093C266.6010546875,151.95029724121093,261.0310546875,155.27029724121093,258.0910546875,159.71029724121092L247.0910546875,172.77029724121093C242.0110546875,176.96029724121092,234.9510546875,182.72029724121094,228.3710631875,184.77029724121093C234.2010546875,191.08029724121093,241.3710546875,202.84029724121095,251.66105468749998,198.13029724121094C255.4210546875,196.86029724121093,257.2910546875,192.89029724121093,259.9410546875,190.19029724121094L274.7910546875,172.63029724121094C289.6110546875,176.78029724121092,305.99105468749997,168.71029724121092,304.3710546875,151.69029724121094C303.3210546875,137.15029724121092,295.42105468750003,124.10029724121094,287.0810546875,112.52029724121094C290.0810546875,86.41029724121094,270.2010546875,66.58029175121094,247.1910546875,66.57029724121094C240.6473546875,66.59656524121094,234.20108468749999,68.15845724121094,228.3710326875,71.13029724121094" fill="#FFFFFF" fill-opacity="1" style="mix-blend-mode:passthrough"/></g><g><path d="M106.11125625,96.0205C109.16125625000001,92.0205,112.18125624999999,88.4305,113.57125625,84.0205C116.01135625,70.9505,111.81135625,57.0705,116.75125625,44.4305C129.60125625,14.8605,174.63165625,14.8605,187.47165625,44.4305C192.41165625,57.0605,188.21165625,70.9405,190.65165625,84.0105C192.05165625,88.4505,195.07165625,92.0105,198.12165625,96.0105C209.55165625,112.721,222.25165625,130.501,224.66165625,151.01C223.16165625,151.01,221.66165625,151.01,220.16165625,150.9C213.80165625,149.377,207.09465625,150.791,201.89165625,154.751C191.33165625,149.9,180.17165625,156.521,174.27165625,165.361L152.11135625,191.361Q141.04135625,178.361,129.96135625,165.361C124.07135625,156.531,112.89135625,149.9,102.34135624999999,154.751C95.34135624999999,149.081,87.77135625,150.48,79.57135625000001,151.01C81.97135625,130.471,94.68135625,112.691,106.11125625,96.0205ZM152.11135625,0.010498C123.83135625,-0.509502,96.52135625,18.3405,87.71135625,45.1305C84.05135625,55.3605,84.50135625,66.3405,84.52135625,77.0305C69.52135625,98.0305,54.15133625,122.42,55.42132565,149.11C56.34132425,174.43,83.59135625,183.98,105.29135625,177.94L130.39135625,207.42C136.14135625,214.19,141.89135625,223.12,152.02135625,222.3C162.24165625,223.2,168.02165625,214.3,173.83165624999998,207.42Q186.39165625,192.69,198.93165625,177.94C224.43165625,184.71,251.33165625,171.77,248.93165625,142.78C247.16165625,118.37,233.80165625,96.4605,219.70165625,77.0305C219.70165625,66.3505,220.17165625,55.3605,216.51165625,45.1305C207.81165625,18.7005,181.11165625,0.000484467,153.24135625,0.000484467L152.10135624999998,0.000484467" fill="#FFFFFF" fill-opacity="1" style="mix-blend-mode:passthrough"/></g><g><path d="M132.37140625,73.63080505371093C132.37140625,70.24530505371094,135.11590625,67.50080505371093,138.50140625,67.50080505371093C141.88690625,67.50080505371093,144.63140625,70.24530505371094,144.63140625,73.63080505371093C144.63140625,77.01630505371094,141.88690625,79.76080505371094,138.50140625,79.76080505371094C135.11590625,79.76080505371094,132.37140625,77.01630505371094,132.37140625,73.63080505371093ZM118.69140625,73.63080505371093C118.68771362,82.08520505371094,125.53883625,88.94080505371093,133.99140625,88.94080505371093C142.44030625,88.94450505371094,149.29140625,82.09340505371094,149.29140625,73.64080505371093C149.28950625,65.18637505371093,142.43390625,58.33525848371094,133.98140625,58.34080505371094C125.53697625,58.34080505371094,118.69140625,65.18637505371093,118.69140625,73.63080505371093Z" fill="#FFFFFF" fill-opacity="1" style="mix-blend-mode:passthrough"/></g><g><path d="M170.4611328125,73.63080505371093C170.4611328125,70.24530505371094,173.2056328125,67.50080505371093,176.5911328125,67.50080505371093C179.9766328125,67.50080505371093,182.7211328125,70.24530505371094,182.7211328125,73.63080505371093C182.7211328125,77.01630505371094,179.9766328125,79.76080505371094,176.5911328125,79.76080505371094C173.2033328125,79.76640505371094,170.4555328125,77.01860505371094,170.4611328125,73.63080505371093ZM155.1611328125,73.63080505371093C155.1556091325,82.08210505371093,162.0032028125,88.93710505371094,170.4544328125,88.94080505371093C178.9075328125,88.94260505371093,185.7611328125,82.09210505371094,185.7611328125,73.64080505371093C185.7630328125,65.19138505371093,178.91243281250001,58.34079742432094,170.4611328125,58.34080505371094C162.0127828125,58.33528900371094,155.1611328125,65.18247505371093,155.1611328125,73.63080505371093Z" fill="#FFFFFF" fill-opacity="1" style="mix-blend-mode:passthrough"/></g><g><path d="M371.3010546875,146.73059255371095Q370.2310546875,146.67059255371095,369.5310546875,146.58059255371094L369.5310546875,129.63059255371093L373.6710546875,129.63059255371093C376.5274546875,129.51169255371093,379.3641546875,130.15359255371095,381.8910546875,131.49059255371094C384.0110546875,132.74059255371094,385.0710546875,134.97059255371093,385.0710546875,138.20059255371095C385.1122546875,139.66099255371094,384.7673546875,141.10629255371094,384.0710546875,142.39059255371095C383.4558546875,143.47189255371094,382.5702546875,144.37469255371093,381.5010546875,145.01059255371092C380.3920546875,145.66069255371093,379.1819546875,146.12039255371093,377.9210546875,146.37059255371094C376.6415546875,146.63839255371093,375.3382546875,146.77579255371094,374.0310546875,146.78059255371093C372.8910546875,146.78059255371093,371.9610546875,146.78059255371093,371.2610546875,146.78059255371093M369.5310546875,100.37059255371094C370.0145546875,100.30169255371094,370.5025546875,100.26829255371094,370.9910546875,100.27059255371094L372.4610546875,100.27059255371094C373.5086546875,100.27259255371094,374.5535546875,100.37649255371093,375.5810546875,100.58059255371094C376.6180546875,100.76559255371095,377.6116546875,101.14209255371094,378.5110546875,101.69059255371094C379.4025546875,102.24069255371094,380.1472546875,102.99909255371094,380.6810546875,103.90059255371094C381.2853546875,104.97639255371094,381.5828546875,106.19739255371094,381.5410546875,107.43059255371094C381.5410546875,110.33059255371094,380.7310546875,112.36059255371094,379.1110546875,113.54059255371094C377.1045546875,114.82829255371094,374.7407546875,115.44459255371093,372.3610546875,115.30059255371094L369.5310546875,115.30059255371094L369.5310546875,100.37059255371094ZM360.4510546875,86.76062055371094C357.4510546875,87.02061455371094,354.6410546875,87.36062255371094,352.0810546875,87.76062255371093L352.0810546875,159.89059255371092Q357.0810546875,160.49059255371094,361.4610546875,160.89059255371092C364.3510546875,161.16059255371096,367.6210546875,161.29059255371095,371.2510546875,161.29059255371095C375.5085546875,161.32259255371093,379.7609546875,160.98809255371094,383.9610546875,160.29059255371095C387.5133546875,159.74659255371094,390.9343546875,158.54979255371094,394.0510546875,156.76059255371092C396.8452546875,155.11469255371094,399.1428546875,152.74459255371096,400.7010546875,149.90059255371094C403.3333546875,144.28689255371094,403.8379546875,137.90839255371094,402.1210546875,131.95059255371095C401.5202546875,130.08149255371094,400.6147546875,128.32449255371094,399.4410546875,126.75059255371093C398.3655546875,125.34469255371093,397.0725546875,124.11929255371093,395.6110546875,123.12059255371094C394.2040546875,122.17149255371095,392.6986546875,121.37689255371095,391.1210546875,120.75059255371093C393.3740546875,119.22479255371094,395.2124546875,117.16299255371094,396.4710546875,114.75059255371093C397.8984546875,112.10039255371093,398.6280546875,109.13059255371094,398.5910546875,106.12059255371094C398.71115468749997,102.80909255371094,397.9630546875,99.52369255371093,396.42105468750003,96.59059255371093C394.9963546875,94.12167255371094,392.9657546875,92.05665255371093,390.5210546875,90.59060255371094C387.8475546875,88.97050255371094,384.9037546875,87.84584255371094,381.8310546875,87.27061255371093C378.2907546875,86.59793055371094,374.6946546875,86.26309204371094,371.0910546875,86.27061462371094Q365.0310546875,86.27061462371094,360.4910246875,86.68061855371094" fill="#FFFFFF" fill-opacity="1" style="mix-blend-mode:passthrough"/></g><g><path d="M438.630859125,87.56095890371094C437.417297125,92.73746130371094,437.417297125,98.12446130371094,438.630859125,103.30096130371093L455.480803125,103.30096130371093L455.480803125,159.79096130371096C458.449703125,160.34816130371092,461.460503125,160.65256130371094,464.480803125,160.70096130371093C467.457503125,160.64136130371094,470.424103125,160.33696130371095,473.35080312499997,159.79096130371096L473.35080312499997,103.27096130371093L490.200803125,103.27096130371093C490.697203125,100.63206130371094,490.96810312499997,97.95576130371094,491.010803125,95.27096130371093C491.005203125,94.05838130371093,490.938503125,92.84683130371094,490.810803125,91.64096130371094C490.670803125,90.36096130371094,490.470803125,88.98096130371094,490.200803125,87.50096130371094L438.630859125,87.56095890371094Z" fill="#FFFFFF" fill-opacity="1" style="mix-blend-mode:passthrough"/></g><g><path d="M512.2708984375,87.81021099121094C509.3574984375,88.68954099121093,506.6598984375,90.16777099121094,504.3508884375,92.15021099121094C502.1609484375,94.08163099121094,500.4231584375,96.47154099121094,499.2608684375,99.15024099121094C498.0010984375,102.15264099121094,497.3812284375,105.38474099121093,497.4408584375,108.64024099121093C497.3914184375,111.20804099121094,497.7838184375,113.76524099121093,498.6008284375,116.20024099121093C499.3403884375,118.28294099121094,500.4517184375,120.21424099121094,501.8808584375,121.90024099121094C503.3436884375,123.59054099121093,505.0649984375,125.03844099121093,506.9807984375,126.19024099121094C509.0708984375,127.45094099121093,511.2818984375,128.49954099121095,513.5807984375,129.32024099121094L519.2307984375,131.43024099121095C520.1107984375,131.77024099121093,520.9607984375,132.12024099121095,521.8108984375,132.49024099121095C522.6190984375,132.84544099121092,523.3784984375,133.30244099121094,524.0708984375,133.85024099121094C525.5343984375,134.98224099121094,526.3610984375,136.75134099121095,526.2907984375,138.60024099121094C526.2907984375,141.15024099121092,525.2907984375,142.95024099121093,523.4207984375,143.99024099121095C520.9224984375,145.15934099121094,518.1756984375,145.69834099121096,515.4207984375,145.56024099121095Q508.5608984375,145.56024099121095,499.2808184375,141.56024099121095Q497.8308684375,145.67024099121093,496.8308684375,149.65024099121092C496.1903684375,152.12194099121092,495.7192384375,154.63444099121094,495.4208984375,157.17024099121093C498.7839384375,158.47424099121093,502.2446884375,159.51084099121096,505.7708984375,160.27024099121093C509.3930984375,160.98294099121094,513.0794984375,161.31814099121095,516.7708984375,161.27024099121093C520.8849984375,161.33714099121096,524.9851984375,160.77744099121094,528.9307984375,159.61024099121096C532.1945984375,158.64354099121095,535.2312984375,157.03174099121094,537.8607984375,154.87024099121095C540.2380984375,152.87294099121095,542.1176984375,150.34974099121092,543.3507984375,147.50024099121094C544.6377984375,144.45544099121093,545.2747984375,141.17544099121093,545.2207984375,137.87024099121095C545.2885984375,135.00794099121094,544.8449984375,132.15654099121093,543.9107984375,129.45024099121093C543.1012984375,127.21104099121094,541.8305984375,125.16694099121094,540.1807984375,123.45024099121093C538.4815984375,121.74174099121095,536.5243984374999,120.31094099121094,534.3808984375,119.21024099121094Q530.9907984375,117.44024099121094,526.7608984375,115.73024099121093L521.9207984375,113.81024099121093C520.3050984375,113.21244099121094,518.7777984375,112.39834099121094,517.3808984375,111.39024099121093C516.0512984375,110.35884099121094,515.3297984375,108.72784099121094,515.4608984375,107.05024099121094C515.4274984375,106.04634099121094,515.6732984375,105.05284099121094,516.1708984375,104.18024099121094C516.6248984375,103.42434099121094,517.2652984375,102.79764099121094,518.0308984375,102.36024099121093C518.8512984375,101.89444099121094,519.7381984375,101.55714099121094,520.6608984375,101.36024099121094C521.6713984375,101.15654099121093,522.6999984375,101.05594099121093,523.7308984375,101.06024099121093C526.7038984375,100.98284099121094,529.6696984375,101.39154099121095,532.5108984375,102.27024099121094Q536.0409984375,103.49024099121094,538.6609984375,104.59024099121093C539.7657984375,102.23634099121094,540.6624984375,99.79034099121094,541.3408984375,97.28024099121095C541.9965984375,94.98022099121094,542.4943984375,92.63811099121094,542.8308984375,90.27022099121093C539.4836984375,89.07811099121093,536.0632984375,88.10277099121093,532.5908984375,87.35022099121093C529.3208984375,86.67462199121094,525.9898984375,86.33950806121094,522.6508984375,86.35021973121094C519.1334984375,86.30729679121093,515.6300984375,86.79959099121093,512.2608984375,87.81023099121094" fill="#FFFFFF" fill-opacity="1" style="mix-blend-mode:passthrough"/></g><g><path d="M560.391171875,87.16091924121093C558.911191875,87.30091824121094,557.261171875,87.50091524121093,555.451171875,87.76092524121094L555.451171875,159.76092224121095C558.419981875,160.31852224121093,561.430781875,160.62302224121095,564.451171875,160.67092224121092C567.427771875,160.61132224121093,570.394471875,160.30692224121094,573.321171875,159.76092224121095L573.321171875,87.76092524121094Q570.701171875,87.37092624121094,568.431171875,87.16091924121093C566.921171875,87.02091984121094,565.561171875,86.96092224121094,564.351131875,86.96092224121094C563.141111875,86.96092224121094,561.891111875,87.02091984121094,560.411131875,87.16091924121093M597.031171875,87.16091924121093C595.551171875,87.26092524121094,593.801171875,87.48092624121094,591.781171875,87.81091324121094L574.781171875,123.52092224121094L593.241171875,159.84092224121093C594.774071875,160.14872224121092,596.323271875,160.36912224121093,597.881171875,160.50092224121096C599.691171875,160.66092224121093,601.571171875,160.75092224121096,603.531171875,160.75092224121096C605.071171875,160.75092224121096,606.801171875,160.66092224121093,608.721171875,160.50092224121096C610.264571875,160.38672224121092,611.798171875,160.16622224121093,613.311171875,159.84092224121093L594.391171875,122.57092224121094L611.641171875,87.76092524121094C611.031171875,87.70092724121093,610.311171875,87.61093124121093,609.471171875,87.51092524121094L606.851171875,87.21092224121094C605.941271875,87.11091624121094,605.011171875,87.04092404121094,604.071171875,87.01092534121094C603.131171875,86.98092654121093,602.291171875,86.96092224121094,601.551171875,86.96092224121094C600.001171875,86.96092224121094,598.491171875,87.01092534121094,597.011171875,87.11091624121094" fill="#FFFFFF" fill-opacity="1" style="mix-blend-mode:passthrough"/></g><g><path d="M661.7709765625,87.16091924121093C660.0909765625,87.30091824121094,658.4809765625,87.50091524121093,656.9309765625,87.76092524121094L645.0309765625,115.76092224121093L632.6209765625,87.76092524121094C631.3409765625,87.56092824121093,629.8409765625,87.38092024121094,628.1309765625,87.21092224121094C626.4209765625,87.04092404121094,624.8509765625,86.96092224121094,623.4409765625,86.96092224121094C621.6909765625,86.96092224121094,619.8410065625,87.04092404121094,617.8909865625,87.21092224121094C615.9409765625,87.38092024121094,614.3909865625,87.56092824121093,613.2509765625,87.76092524121094Q615.8809765625,93.22093224121093,618.7009865625,99.11092224121094Q621.5209965625,105.00092224121093,624.4009765625,110.92092224121095Q627.2609765625,116.82092224121094,630.1509765625,122.72092224121093Q633.0409765625,128.62092224121093,635.6509765625,134.07092224121095L635.6509765625,159.79092224121092C638.6197765625,160.34852224121096,641.6305765625,160.65302224121092,644.6509765625,160.70092224121095C647.6309765625,160.64182224121095,650.6009765625,160.33752224121093,653.5309765625,159.79092224121092L653.5309765625,134.07092224121095L676.0309765625,87.76092524121094C674.7509765625,87.56092824121093,673.2009765625,87.38092024121094,671.3909765625,87.21092224121094C669.5809765625,87.04092404121094,668.0909765625,86.96092224121094,666.9509765625,86.96092224121094C665.2009765625,86.96092224121094,663.4809765625,87.02091984121094,661.8009765625,87.16091924121093" fill="#FFFFFF" fill-opacity="1" style="mix-blend-mode:passthrough"/></g><g><path d="M417.25079125,87.16091924121093Q415.03082125,87.37092624121094,412.30078125,87.76092524121094L412.30078125,159.76092224121095C415.26965125,160.31802224121094,418.28046125,160.62252224121096,421.30078125,160.67092224121092C424.28068125,160.61092224121094,427.25068125,160.30652224121093,430.18078125,159.76092224121095L430.18078125,87.76092524121094Q427.56078125,87.37092624121094,425.29078125,87.16091924121093C423.77078125,87.02091984121094,422.41078125,86.96092224121094,421.20074125,86.96092224121094C419.99072125,86.96092224121094,418.74072125,87.02091984121094,417.27075125,87.16091924121093" fill="#FFFFFF" fill-opacity="1" style="mix-blend-mode:passthrough"/></g></g></svg>