<svg xmlns="http://www.w3.org/2000/svg" xmlns:xlink="http://www.w3.org/1999/xlink" fill="none" version="1.1" width="24" height="24" viewBox="0 0 24 24"><g><g><g><g><path d="M12,22.75C6.07,22.75,1.25,17.93,1.25,12C1.25,6.07,6.07,1.25,12,1.25C17.93,1.25,22.75,6.07,22.75,12C22.75,17.93,17.93,22.75,12,22.75C12,22.75,12,22.75,12,22.75ZM12,2.75C6.9,2.75,2.75,6.9,2.75,12C2.75,17.1,6.9,21.25,12,21.25C17.1,21.25,21.25,17.1,21.25,12C21.25,6.9,17.1,2.75,12,2.75C12,2.75,12,2.75,12,2.75Z" fill="#FFFFFF" fill-opacity="1"/></g><g><path d="M8.999999771118164,21.75C8.999999771118164,21.75,7.999999771118164,21.75,7.999999771118164,21.75C7.589999771118164,21.75,7.249999771118164,21.41,7.249999771118164,21C7.249999771118164,20.59,7.569999771118164,20.26,7.979999771118164,20.25C6.409999771118164,14.89,6.409999771118164,9.11,7.979999771118164,3.75C7.569999771118164,3.74,7.249999771118164,3.41,7.249999771118164,3C7.249999771118164,2.59,7.589999771118164,2.25,7.999999771118164,2.25C7.999999771118164,2.25,8.999999771118164,2.25,8.999999771118164,2.25C9.239999771118164,2.25,9.469999771118164,2.37,9.609999771118165,2.56C9.749999771118164,2.76,9.789999771118165,3.01,9.709999771118165,3.24C7.829999771118164,8.89,7.829999771118164,15.11,9.709999771118165,20.77C9.789999771118165,21,9.749999771118164,21.25,9.609999771118165,21.45C9.469999771118164,21.63,9.239999771118164,21.75,8.999999771118164,21.75C8.999999771118164,21.75,8.999999771118164,21.75,8.999999771118164,21.75Z" fill="#FFFFFF" fill-opacity="1"/></g><g><path d="M15.000000146484375,21.750019689559938C14.920000146484375,21.750019689559938,14.840000146484375,21.740019689559936,14.760000146484375,21.710019689559935C14.370000146484376,21.580019689559936,14.150000346484376,21.150019689559937,14.290000346484375,20.760019689559936C16.170000146484377,15.110019689559936,16.170000146484377,8.889999689559936,14.290000346484375,3.2299996895599365C14.160000346484376,2.8399996895599364,14.370000146484376,2.4099996895599367,14.760000146484375,2.2800000895599366C15.160000146484375,2.1500000895599367,15.580000146484375,2.3599996895599364,15.710000146484376,2.7499996895599366C17.700000146484374,8.709999689559936,17.700000146484374,15.270019689559936,15.710000146484376,21.220019689559937C15.610000146484374,21.550019689559935,15.310000146484375,21.750019689559938,15.000000146484375,21.750019689559938C15.000000146484375,21.750019689559938,15.000000146484375,21.750019689559938,15.000000146484375,21.750019689559938Z" fill="#FFFFFF" fill-opacity="1"/></g><g><path d="M12,17.199996570129393C9.21,17.199996570129393,6.43,16.809996570129396,3.75,16.019996570129393C3.74,16.419996570129396,3.41,16.749996570129394,3,16.749996570129394C2.59,16.749996570129394,2.25,16.409996570129394,2.25,15.999996570129394C2.25,15.999996570129394,2.25,14.999999570129395,2.25,14.999999570129395C2.25,14.759999570129395,2.37,14.530000570129394,2.56,14.390000570129395C2.76,14.250000283129394,3.01,14.209999870129394,3.24,14.289999870129394C8.89,16.169996570129396,15.12,16.169996570129396,20.77,14.289999870129394C21,14.209999870129394,21.25,14.250000283129394,21.45,14.390000570129395C21.65,14.530000570129394,21.76,14.759999570129395,21.76,14.999999570129395C21.76,14.999999570129395,21.76,15.999996570129394,21.76,15.999996570129394C21.76,16.409996570129394,21.42,16.749996570129394,21.01,16.749996570129394C20.6,16.749996570129394,20.27,16.429996570129394,20.26,16.019996570129393C17.57,16.809996570129396,14.79,17.199996570129393,12,17.199996570129393C12,17.199996570129393,12,17.199996570129393,12,17.199996570129393Z" fill="#FFFFFF" fill-opacity="1"/></g><g><path d="M21.000010234069823,9.750000133514405C20.920010234069824,9.750000133514405,20.840010234069823,9.740000133514403,20.760010234069824,9.710000133514404C15.110010234069824,7.830000133514404,8.880000234069824,7.830000133514404,3.2300002340698244,9.710000133514404C2.830000234069824,9.840000133514405,2.410000234069824,9.630000133514404,2.280000034069824,9.240000133514403C2.1600001340698243,8.840000133514405,2.370000234069824,8.420000133514405,2.760000234069824,8.290000133514404C8.720000234069825,6.300000133514405,15.280010234069824,6.300000133514405,21.230010234069823,8.290000133514404C21.620010234069824,8.420000133514405,21.840010234069823,8.850000133514405,21.700010234069826,9.240000133514403C21.610010234069826,9.550000133514404,21.310010234069825,9.750000133514405,21.000010234069823,9.750000133514405C21.000010234069823,9.750000133514405,21.000010234069823,9.750000133514405,21.000010234069823,9.750000133514405Z" fill="#FFFFFF" fill-opacity="1"/></g><g style="opacity:0;"></g></g></g></g></svg>