<svg xmlns="http://www.w3.org/2000/svg" xmlns:xlink="http://www.w3.org/1999/xlink" fill="none" version="1.1" width="200" height="200" viewBox="0 0 200 200"><defs><clipPath id="master_svg0_571_04368"><rect x="0" y="0" width="200" height="200" rx="0"/></clipPath></defs><g clip-path="url(#master_svg0_571_04368)"><g><path d="M162.93731552124024,24.975000397583006C160.93131552124024,25.120975397583006,158.96131552124024,25.59168039758301,157.10631552124025,26.368754397583007L157.08131552124024,26.368754397583007C155.30031552124024,27.07499439758301,146.83131552124024,30.637504397583008,133.95631552124024,36.037454397583005L87.81871552124024,55.46875439758301Q54.712515521240235,69.40625439758301,22.168755521240236,83.131254397583L22.556215521240233,82.981254397583Q20.312505521240233,83.71875439758301,17.968755521240233,85.32495439758301C16.520805521240234,86.246354397583,15.274835521240234,87.45195439758301,14.306255521240235,88.86875439758302C13.156255521240235,90.556254397583,12.231255521240234,93.13745439758301,12.575005521240234,95.806254397583C13.137505521240234,100.318754397583,16.062505521240233,103.024954397583,18.162505521240234,104.51875439758301Q20.287505521240234,106.03125439758301,22.312505521240233,106.73745439758301L22.362505521240234,106.73745439758301L52.881215521240236,117.01875439758301C54.250015521240236,121.412454397583,62.18121552124023,147.487054397583,64.08751552124023,153.494054397583C65.21251552124023,157.08105439758302,66.30621552124023,159.32505439758302,67.67501552124023,161.037054397583C68.33751552124023,161.912054397583,69.11251552124023,162.644054397583,70.04371552124024,163.231054397583C70.52791552124023,163.513054397583,71.04411552124023,163.735054397583,71.58121552124024,163.894054397583L71.26871552124024,163.81905439758302C71.36251552124023,163.844054397583,71.43751552124024,163.919054397583,71.50621552124024,163.94405439758302C71.75621552124024,164.012054397583,71.92501552124023,164.037054397583,72.24381552124024,164.08705439758302Q77.07501552124023,165.550054397583,80.95621552124024,162.550054397583L81.17501552124024,162.375054397583L99.19381552124024,145.96905439758302L129.39331552124025,169.137054397583L130.08131552124024,169.431054397583C136.37531552124022,172.19405439758302,142.75031552124022,170.656054397583,146.11831552124025,167.94405439758302Q149.51231552124023,165.21205439758302,150.83131552124024,161.719054397583L151.05031552124024,161.156054397583L174.38731552124023,41.599954397583005C175.05031552124024,38.64995439758301,175.21831552124024,35.88745439758301,174.48731552124025,33.20623439758301C173.73331552124023,30.492644397583007,171.99231552124024,28.15877439758301,169.60631552124025,26.662484397583007C167.60231552124023,25.444452397583007,165.27931552124022,24.85653539758301,162.93731552124024,24.975000397583006ZM162.30631552124024,37.787454397583005C162.28131552124023,38.181254397583004,162.35631552124025,38.13745439758301,162.18131552124024,38.89375439758301L162.18131552124024,38.96245439758301L139.06231552124024,157.275054397583C138.9623155212402,157.44405439758302,138.79331552124023,157.812054397583,138.33131552124024,158.181054397583C137.84331552124024,158.56905439758302,137.45631552124024,158.812054397583,135.42531552124024,158.006054397583L98.48751552124024,129.687054397583L76.17501552124023,150.025054397583L80.86251552124024,120.087454397583L141.21231552124024,63.83745439758301Q143.70031552124024,61.52495439758301,142.86831552124025,61.037454397583005Q143.04331552124023,58.19995439758301,139.11231552124025,60.20625439758301L63.01251552124023,107.349954397583L62.98751552124023,107.224954397583L26.512515521240232,94.943754397583L26.512515521240232,94.918754397583L26.418715521240234,94.899954397583C26.482715521240234,94.87875439758301,26.545315521240234,94.85365439758301,26.606215521240234,94.82495439758301L26.806215521240233,94.724954397583L27.000015521240236,94.65625439758301Q59.568715521240236,80.93125439758302,92.67501552124024,66.99375439758302C109.25001552124023,60.01245439758301,125.95031552124023,52.98125439758301,138.79331552124023,47.556254397583004C151.63731552124023,42.162454397583005,161.13131552124023,38.20625439758301,161.66831552124023,37.993754397583004C162.18131552124024,37.79375439758301,161.93731552124024,37.79375439758301,162.30631552124024,37.79375439758301L162.30631552124024,37.787454397583005Z" fill="#FFFFFF" fill-opacity="1" style="mix-blend-mode:passthrough"/></g></g></svg>