<svg xmlns="http://www.w3.org/2000/svg" xmlns:xlink="http://www.w3.org/1999/xlink" fill="none" version="1.1" width="200" height="200" viewBox="0 0 200 200"><defs><clipPath id="master_svg0_571_04376"><rect x="0" y="0" width="200" height="200" rx="0"/></clipPath></defs><g clip-path="url(#master_svg0_571_04376)"><g><path d="M187.5,99.45316875C187.5,99.02346875,187.5,98.53516875,187.48,97.96876875000001C187.461,96.38676875,187.422,94.60936875,187.383,92.71486875C187.227,87.26566875,186.953,81.83596875,186.523,76.71876875000001C185.938,69.66796875,185.078,63.78906875,183.906,59.37496875C181.406,50.01956875,174.062,42.65624875,164.707,40.13671875C159.18,38.65234875,148.359,37.73437875,133.125,37.16796875C125.879,36.89453075,118.125,36.71874975,110.3711,36.62109375C107.6562,36.58203125,105.1367,36.56249995,102.8711,36.54296875L97.1289,36.54296875C94.8633,36.56249995,92.3438,36.58203125,89.6289,36.62109375C81.875,36.71874975,74.1211,36.89453075,66.875,37.16796875C51.6406,37.75390875,40.800799999999995,38.67187875,35.293,40.13671875C25.957,42.63671875,18.59375,49.99996875,16.09375,59.37496875C14.90234,63.78906875,14.0625,69.66796875,13.476562,76.71876875000001C13.046875,81.83596875,12.773438,87.26566875,12.617188,92.71486875C12.5585938,94.60936875,12.5390625,96.38676875,12.5195312,97.96876875000001C12.5195312,98.53516875,12.5,99.02346875,12.5,99.45316875L12.5,100.54686875C12.5,100.97656875,12.5,101.46486875,12.5195312,102.03126875C12.5390625,103.61326875,12.578125,105.39066875,12.617188,107.28516875C12.773438,112.73436875,13.046875,118.16406875,13.476562,123.28126875C14.0625,130.33206875000002,14.92188,136.21096875,16.09375,140.62496875C18.59375,149.98096875,25.9375,157.36296875,35.293,159.86296875C40.800799999999995,161.34796875,51.6406,162.26596875,66.875,162.83196875C74.1211,163.10496875,81.875,163.28096875,89.6289,163.37896875C92.3438,163.41796875,94.8633,163.43796874999998,97.1289,163.45696875L102.8711,163.45696875C105.1367,163.43796874999998,107.6562,163.41796875,110.3711,163.37896875C118.125,163.28096875,125.879,163.10496875,133.125,162.83196875C148.359,162.24596875,159.199,161.32796875,164.707,159.86296875C174.062,157.36296875,181.406,149.99996875,183.906,140.62496875C185.098,136.21096875,185.938,130.33206875000002,186.523,123.28126875C186.953,118.16406875,187.227,112.73436875,187.383,107.28516875C187.441,105.39066875,187.461,103.61326875,187.48,102.03126875C187.48,101.46486875,187.5,100.97656875,187.5,100.54686875L187.5,99.99996875L187.5,99.45316875ZM173.438,100.46876875000001C173.438,100.87886875,173.438,101.32816875,173.418,101.85546875C173.398,103.37886875,173.359,105.05856875,173.32,106.87496875C173.184,112.07026875,172.91,117.26566875,172.5,122.08986875C171.973,128.37886874999998,171.23,133.53516875,170.312,136.99196875C169.102,141.50396875,165.547,145.07796875,161.055,146.26996875C156.953,147.36296875,146.621,148.24196875,132.578,148.76996875C125.469,149.04296875,117.812,149.21896875,110.1758,149.31596875C107.5,149.35496875,105.0195,149.37496875,102.793,149.37496875L97.207,149.37496875C94.9805,149.35496875,92.5,149.33596875,89.8242,149.31596875C82.1875,149.21896875,74.55080000000001,149.04296875,67.4219,148.76996875C53.3789,148.22296875,43.0273,147.36296875,38.9453,146.26996875C34.4531,145.05896875000002,30.8984,141.50396875,29.6875,136.99196875C28.7695,133.53516875,28.0273,128.37886874999998,27.5,122.08986875C27.0898,117.26566875,26.835900000000002,112.07026875,26.6797,106.87496875C26.6211,105.05856875,26.601599999999998,103.35936875,26.582,101.85546875C26.582,101.32816875,26.5625,100.85936875,26.5625,100.46876875000001L26.5625,99.88276875L26.5625,99.53126875000001C26.5625,99.12106875,26.5625,98.67186875,26.582,98.14456874999999C26.601599999999998,96.62106875,26.6406,94.94136875000001,26.6797,93.12496875C26.8164,87.92966874999999,27.0898,82.73436875,27.5,77.91016875C28.0273,71.62106875,28.7695,66.46486875,29.6875,63.00776875C30.8984,58.49606875,34.4531,54.92186875,38.9453,53.73046875C43.0469,52.63676875,53.3789,51.75776875,67.4219,51.23046875C74.5312,50.95706875,82.1875,50.78126875,89.8242,50.68356875C92.5,50.64456875,94.9805,50.62496875,97.207,50.62496875L102.793,50.62496875C105.0195,50.64456875,107.5,50.66406875,110.1758,50.68356875C117.812,50.78126875,125.449,50.95706875,132.578,51.23046875C146.621,51.77736875,156.973,52.63676875,161.055,53.73046875C165.547,54.941368749999995,169.102,58.49606875,170.312,63.00776875C171.23,66.46486875,171.973,71.62106875,172.5,77.91016875C172.91,82.73436875,173.164,87.92966874999999,173.32,93.12496875C173.379,94.94136875000001,173.398,96.64066875,173.418,98.14456874999999C173.418,98.67186875,173.438,99.14066875,173.438,99.53126875000001L173.438,100.46876875000001Z" fill="#FFFFFF" fill-opacity="1" style="mix-blend-mode:passthrough"/></g><g><path d="M82.6171875,126.171925L127.9296875,99.804725L82.6171875,73.828125L82.6171875,126.171925Z" fill="#FFFFFF" fill-opacity="1" style="mix-blend-mode:passthrough"/></g></g></svg>