<svg xmlns="http://www.w3.org/2000/svg" xmlns:xlink="http://www.w3.org/1999/xlink" fill="none" version="1.1" width="24" height="24" viewBox="0 0 24 24"><g><g><path d="M20.38,20.11C20.38,20.11,19.84967,20.6403,19.84967,20.6403C19.99074,20.781399999999998,20.18218,20.8604,20.38167,20.86C20.58116,20.8596,20.77225,20.7797,20.912689999999998,20.637999999999998C20.912689999999998,20.637999999999998,20.38,20.11,20.38,20.11C20.38,20.11,20.38,20.11,20.38,20.11ZM14,13.73C14,13.73,13.46967,13.199670000000001,13.46967,13.199670000000001C13.329018,13.34032,13.25,13.53108,13.25,13.73C13.25,13.92891,13.329018,14.11967,13.46967,14.26033C13.46967,14.26033,14,13.73,14,13.73C14,13.73,14,13.73,14,13.73ZM21.73001,6C21.73001,6,22.46127,5.833384,22.46127,5.833384C22.40062,5.56719,22.200110000000002,5.354981,21.93777,5.279351C21.675440000000002,5.203721,21.39273,5.276618,21.19968,5.469669C21.19968,5.469669,21.73001,6,21.73001,6C21.73001,6,21.73001,6,21.73001,6ZM21.25,8.73C21.25,8.73,21.25,14.73,21.25,14.73C21.25,14.73,22.75,14.73,22.75,14.73C22.75,14.73,22.75,8.73,22.75,8.73C22.75,8.73,21.25,8.73,21.25,8.73C21.25,8.73,21.25,8.73,21.25,8.73ZM21.25,14.73C21.25,17.1553,20.76051,18.6607,19.84732,19.582C19.84732,19.582,20.912689999999998,20.637999999999998,20.912689999999998,20.637999999999998C22.2395,19.299300000000002,22.75,17.3047,22.75,14.73C22.75,14.73,21.25,14.73,21.25,14.73C21.25,14.73,21.25,14.73,21.25,14.73ZM20.910339999999998,19.579700000000003C20.910339999999998,19.579700000000003,14.53033,13.199670000000001,14.53033,13.199670000000001C14.53033,13.199670000000001,13.46967,14.26033,13.46967,14.26033C13.46967,14.26033,19.84967,20.6403,19.84967,20.6403C19.84967,20.6403,20.910339999999998,19.579700000000003,20.910339999999998,19.579700000000003C20.910339999999998,19.579700000000003,20.910339999999998,19.579700000000003,20.910339999999998,19.579700000000003ZM14.53033,14.26033C14.53033,14.26033,22.26034,6.530331,22.26034,6.530331C22.26034,6.530331,21.19968,5.469669,21.19968,5.469669C21.19968,5.469669,13.46967,13.199670000000001,13.46967,13.199670000000001C13.46967,13.199670000000001,14.53033,14.26033,14.53033,14.26033C14.53033,14.26033,14.53033,14.26033,14.53033,14.26033ZM20.99875,6.166616C21.16353,6.88979,21.25,7.73203,21.25,8.73C21.25,8.73,22.75,8.73,22.75,8.73C22.75,7.64796,22.6565,6.69021,22.46127,5.833384C22.46127,5.833384,20.99875,6.166616,20.99875,6.166616C20.99875,6.166616,20.99875,6.166616,20.99875,6.166616Z" fill="#572886" fill-opacity="1"/></g><g><path d="M21.73,6.27C21.73,6.27,22.2603,6.80033,22.2603,6.80033C22.4429,6.61776,22.5187,6.3541,22.4611,6.10242C22.4611,6.10242,21.73,6.27,21.73,6.27C21.73,6.27,21.73,6.27,21.73,6.27ZM6.26999,21.73C6.26999,21.73,6.10241,22.461,6.10241,22.461C6.35408,22.5187,6.61774,22.4429,6.80032,22.2603C6.80032,22.2603,6.26999,21.73,6.26999,21.73C6.26999,21.73,6.26999,21.73,6.26999,21.73ZM15,2C15,2,15,2.75,15,2.75C15,2.75,15,2,15,2C15,2,15,2,15,2ZM21.1997,5.73967C21.1997,5.73967,5.739660000000001,21.1997,5.739660000000001,21.1997C5.739660000000001,21.1997,6.80032,22.2603,6.80032,22.2603C6.80032,22.2603,22.2603,6.80033,22.2603,6.80033C22.2603,6.80033,21.1997,5.73967,21.1997,5.73967C21.1997,5.73967,21.1997,5.73967,21.1997,5.73967ZM6.43757,20.999C5.0834399999999995,20.6885,4.2057400000000005,20.0915,3.64147,19.1925C3.05795,18.2629,2.75,16.9167,2.75,15C2.75,15,1.25,15,1.25,15C1.25,17.043300000000002,1.5720480000000001,18.7171,2.371016,19.99C3.18924,21.2935,4.446540000000001,22.0814,6.10241,22.461C6.10241,22.461,6.43757,20.999,6.43757,20.999C6.43757,20.999,6.43757,20.999,6.43757,20.999ZM2.75,15C2.75,15,2.75,9,2.75,9C2.75,9,1.25,9,1.25,9C1.25,9,1.25,15,1.25,15C1.25,15,2.75,15,2.75,15C2.75,15,2.75,15,2.75,15ZM2.75,9C2.75,6.57397,3.2398,5.07086,4.15533,4.15533C5.07086,3.2398,6.57397,2.75,9,2.75C9,2.75,9,1.25,9,1.25C6.42603,1.25,4.42914,1.760201,3.09467,3.09467C1.760201,4.42914,1.25,6.42603,1.25,9C1.25,9,2.75,9,2.75,9C2.75,9,2.75,9,2.75,9ZM9,2.75C9,2.75,15,2.75,15,2.75C15,2.75,15,1.25,15,1.25C15,1.25,9,1.25,9,1.25C9,1.25,9,2.75,9,2.75C9,2.75,9,2.75,9,2.75ZM15,2.75C16.9167,2.75,18.2629,3.05795,19.1925,3.64148C20.0915,4.20575,20.6886,5.0834600000000005,20.999,6.43758C20.999,6.43758,22.4611,6.10242,22.4611,6.10242C22.0815,4.44655,21.2935,3.18925,19.99,2.3710240000000002C18.7171,1.572052,17.043300000000002,1.25,15,1.25C15,1.25,15,2.75,15,2.75C15,2.75,15,2.75,15,2.75Z" fill="#572886" fill-opacity="1"/></g><g><path d="M20.11,20.38C20.11,20.38,20.637999999999998,20.912689999999998,20.637999999999998,20.912689999999998C20.7797,20.77225,20.8596,20.58116,20.86,20.38167C20.860500000000002,20.18218,20.781399999999998,19.99074,20.6403,19.84967C20.6403,19.84967,20.11,20.38,20.11,20.38C20.11,20.38,20.11,20.38,20.11,20.38ZM6,21.73C6,21.73,5.46967,21.19967,5.46967,21.19967C5.276618,21.39272,5.203721,21.67543,5.279351,21.93776C5.354981,22.20009,5.56719,22.4006,5.833384,22.46125C5.833384,22.46125,6,21.73,6,21.73C6,21.73,6,21.73,6,21.73ZM13.73001,14C13.73001,14,14.26034,13.46967,14.26034,13.46967C13.96745,13.176777,13.49257,13.176777,13.19968,13.469669C13.19968,13.469669,13.73001,14,13.73001,14C13.73001,14,13.73001,14,13.73001,14ZM19.582,19.84732C18.6607,20.76051,17.1553,21.25,14.73001,21.25C14.73001,21.25,14.73001,22.75,14.73001,22.75C17.3047,22.75,19.299300000000002,22.2395,20.637999999999998,20.912689999999998C20.637999999999998,20.912689999999998,19.582,19.84732,19.582,19.84732C19.582,19.84732,19.582,19.84732,19.582,19.84732ZM14.73001,21.25C14.73001,21.25,8.73001,21.25,8.73001,21.25C8.73001,21.25,8.73001,22.75,8.73001,22.75C8.73001,22.75,14.73001,22.75,14.73001,22.75C14.73001,22.75,14.73001,21.25,14.73001,21.25C14.73001,21.25,14.73001,21.25,14.73001,21.25ZM8.73001,21.25C7.73206,21.25,6.8897960000000005,21.16351,6.166616,20.998739999999998C6.166616,20.998739999999998,5.833384,22.46125,5.833384,22.46125C6.690204,22.656480000000002,7.64796,22.75,8.73001,22.75C8.73001,22.75,8.73001,21.25,8.73001,21.25C8.73001,21.25,8.73001,21.25,8.73001,21.25ZM6.53033,22.26033C6.53033,22.26033,14.26034,14.530331,14.26034,14.530331C14.26034,14.530331,13.19968,13.469669,13.19968,13.469669C13.19968,13.469669,5.46967,21.19967,5.46967,21.19967C5.46967,21.19967,6.53033,22.26033,6.53033,22.26033C6.53033,22.26033,6.53033,22.26033,6.53033,22.26033ZM13.19968,14.53033C13.19968,14.53033,19.579700000000003,20.910339999999998,19.579700000000003,20.910339999999998C19.579700000000003,20.910339999999998,20.6403,19.84967,20.6403,19.84967C20.6403,19.84967,14.26034,13.46967,14.26034,13.46967C14.26034,13.46967,13.19968,14.53033,13.19968,14.53033C13.19968,14.53033,13.19968,14.53033,13.19968,14.53033Z" fill="#572886" fill-opacity="1"/></g><g><path d="M6.0849895,7.1975C6.0849895,7.1975,6.8154959999999996,7.36739,6.8154959999999996,7.36739C6.8154959999999996,7.36739,6.8155719999999995,7.36705,6.8155719999999995,7.36705C6.8155719999999995,7.36705,6.0849895,7.1975,6.0849895,7.1975C6.0849895,7.1975,6.0849895,7.1975,6.0849895,7.1975ZM11.844999999999999,7.1975C11.844999999999999,7.1975,12.57644,7.03165,12.57644,7.03165C12.57644,7.03165,12.57558,7.027950000000001,12.57558,7.027950000000001C12.57558,7.027950000000001,11.844999999999999,7.1975,11.844999999999999,7.1975C11.844999999999999,7.1975,11.844999999999999,7.1975,11.844999999999999,7.1975ZM10.204979999999999,11.2775C10.204979999999999,11.2775,9.68917,10.73303,9.68917,10.73303C9.68917,10.73303,9.68657,10.735520000000001,9.68657,10.735520000000001C9.68657,10.735520000000001,10.204979999999999,11.2775,10.204979999999999,11.2775C10.204979999999999,11.2775,10.204979999999999,11.2775,10.204979999999999,11.2775ZM7.725,11.2775C7.725,11.2775,7.2091899999999995,11.82197,7.2091899999999995,11.82197C7.2091899999999995,11.82197,7.21049,11.82319,7.21049,11.82319C7.21049,11.82319,7.725,11.2775,7.725,11.2775C7.725,11.2775,7.725,11.2775,7.725,11.2775ZM6.8155719999999995,7.36705C7.06094,6.30981,7.96903,5.75,8.96499,5.75C9.96096,5.75,10.86905,6.30981,11.114419999999999,7.36705C11.114419999999999,7.36705,12.57558,7.027950000000001,12.57558,7.027950000000001C12.14095,5.155191,10.509039999999999,4.25,8.96499,4.25C7.4209499999999995,4.25,5.789039,5.155191,5.354407,7.027950000000001C5.354407,7.027950000000001,6.8155719999999995,7.36705,6.8155719999999995,7.36705C6.8155719999999995,7.36705,6.8155719999999995,7.36705,6.8155719999999995,7.36705ZM11.11357,7.3633500000000005C11.409880000000001,8.67015,10.600570000000001,9.86961,9.68918,10.733039999999999C9.68918,10.733039999999999,10.720790000000001,11.82197,10.720790000000001,11.82197C11.709399999999999,10.885390000000001,13.060120000000001,9.164850000000001,12.57643,7.03165C12.57643,7.03165,11.11357,7.3633500000000005,11.11357,7.3633500000000005C11.11357,7.3633500000000005,11.11357,7.3633500000000005,11.11357,7.3633500000000005ZM9.68657,10.735520000000001C9.2886,11.11619,8.65269,11.12138,8.23951,10.73181C8.23951,10.73181,7.21049,11.82319,7.21049,11.82319C8.19732,12.753630000000001,9.74137,12.75882,10.7234,11.81948C10.7234,11.81948,9.68657,10.735520000000001,9.68657,10.735520000000001C9.68657,10.735520000000001,9.68657,10.735520000000001,9.68657,10.735520000000001ZM8.24081,10.733039999999999C7.32589,9.86627,6.512669,8.66954,6.815495,7.36739C6.815495,7.36739,5.354483,7.02761,5.354483,7.02761C4.85731,9.16546,6.22412,10.88874,7.2092,11.82197C7.2092,11.82197,8.24081,10.733039999999999,8.24081,10.733039999999999C8.24081,10.733039999999999,8.24081,10.733039999999999,8.24081,10.733039999999999Z" fill="#FFBB3B" fill-opacity="1"/></g><g style="opacity:0;"></g><g><path d="M8.4945068359375,7.5C7.9422228359375,7.5,7.4945068359375,7.947715,7.4945068359375,8.5C7.4945068359375,9.05228,7.9422228359375,9.5,8.4945068359375,9.5C8.4945068359375,9.5,8.4945068359375,7.5,8.4945068359375,7.5C8.4945068359375,7.5,8.4945068359375,7.5,8.4945068359375,7.5ZM8.5034868359375,9.5C9.0557668359375,9.5,9.503486835937501,9.05228,9.503486835937501,8.5C9.503486835937501,7.947715,9.0557668359375,7.5,8.5034868359375,7.5C8.5034868359375,7.5,8.5034868359375,9.5,8.5034868359375,9.5C8.5034868359375,9.5,8.5034868359375,9.5,8.5034868359375,9.5ZM8.4945068359375,9.5C8.4945068359375,9.5,8.5034868359375,9.5,8.5034868359375,9.5C8.5034868359375,9.5,8.5034868359375,7.5,8.5034868359375,7.5C8.5034868359375,7.5,8.4945068359375,7.5,8.4945068359375,7.5C8.4945068359375,7.5,8.4945068359375,9.5,8.4945068359375,9.5C8.4945068359375,9.5,8.4945068359375,9.5,8.4945068359375,9.5Z" fill="#FFBB3B" fill-opacity="1"/></g></g></svg>