<svg xmlns="http://www.w3.org/2000/svg" xmlns:xlink="http://www.w3.org/1999/xlink" fill="none" version="1.1" width="18.5699462890625" height="13.639892578125" viewBox="0 0 18.5699462890625 13.639892578125"><g><g style="opacity:0.4000000059604645;"><path d="M0.75,6C0.335786,6,0,6.335786,0,6.75C0,7.164214,0.335786,7.5,0.75,7.5C0.75,7.5,0.75,6,0.75,6C0.75,6,0.75,6,0.75,6ZM17.58,7.5C17.9942,7.5,18.33,7.164214,18.33,6.75C18.33,6.335786,17.9942,6,17.58,6C17.58,6,17.58,7.5,17.58,7.5C17.58,7.5,17.58,7.5,17.58,7.5ZM0.75,7.5C0.75,7.5,17.58,7.5,17.58,7.5C17.58,7.5,17.58,6,17.58,6C17.58,6,0.75,6,0.75,6C0.75,6,0.75,7.5,0.75,7.5C0.75,7.5,0.75,7.5,0.75,7.5Z" fill="#FFBB3B" fill-opacity="1"/></g><g><path d="M12.28033,0.21967000000000003C11.987437,-0.07322300000000004,11.512563,-0.07322300000000004,11.21967,0.21967000000000003C10.926777,0.512563,10.926777,0.987437,11.21967,1.28033C11.21967,1.28033,12.28033,0.21967000000000003,12.28033,0.21967000000000003C12.28033,0.21967000000000003,12.28033,0.21967000000000003,12.28033,0.21967000000000003ZM17.82,6.82C17.82,6.82,18.35033,7.35033,18.35033,7.35033C18.49098,7.20968,18.57,7.01891,18.57,6.82C18.57,6.62109,18.49098,6.43032,18.35033,6.28967C18.35033,6.28967,17.82,6.82,17.82,6.82C17.82,6.82,17.82,6.82,17.82,6.82ZM11.21967,12.3597C10.926777,12.6526,10.926777,13.1274,11.21967,13.4203C11.512563,13.7132,11.987437,13.7132,12.28033,13.4203C12.28033,13.4203,11.21967,12.3597,11.21967,12.3597C11.21967,12.3597,11.21967,12.3597,11.21967,12.3597ZM11.21967,1.28033C11.21967,1.28033,17.28967,7.35033,17.28967,7.35033C17.28967,7.35033,18.35033,6.28967,18.35033,6.28967C18.35033,6.28967,12.28033,0.21967000000000003,12.28033,0.21967000000000003C12.28033,0.21967000000000003,11.21967,1.28033,11.21967,1.28033C11.21967,1.28033,11.21967,1.28033,11.21967,1.28033ZM17.28967,6.28967C17.28967,6.28967,11.21967,12.3597,11.21967,12.3597C11.21967,12.3597,12.28033,13.4203,12.28033,13.4203C12.28033,13.4203,18.35033,7.35033,18.35033,7.35033C18.35033,7.35033,17.28967,6.28967,17.28967,6.28967C17.28967,6.28967,17.28967,6.28967,17.28967,6.28967Z" fill="#FFBB3B" fill-opacity="1"/></g></g></svg>