<svg xmlns="http://www.w3.org/2000/svg" xmlns:xlink="http://www.w3.org/1999/xlink" fill="none" version="1.1" width="50" height="50" viewBox="0 0 50 50"><g><g><g><g><g><path d="M24.999951953125,31.7783203125C24.999951953125,31.7783203125,13.333251953125,31.7783203125,13.333251953125,31.7783203125C12.854918953125,31.7783203125,12.458251953125,31.3816503125,12.458251953125,30.9033203125C12.458251953125,30.4249873125,12.854918953125,30.0283203125,13.333251953125,30.0283203125C13.333251953125,30.0283203125,24.999951953125,30.0283203125,24.999951953125,30.0283203125C25.478251953125,30.0283203125,25.874951953125,30.4249873125,25.874951953125,30.9033203125C25.874951953125,31.3933203125,25.478251953125,31.7783203125,24.999951953125,31.7783203125C24.999951953125,31.7783203125,24.999951953125,31.7783203125,24.999951953125,31.7783203125Z" fill="#FFBB3B" fill-opacity="1"/></g><g><path d="M22.4097465625,37.5417C22.4097465625,37.5417,15.934696562500001,37.5417,15.934696562500001,37.5417C13.3796925625,37.5417,12.4697265625,36.643299999999996,12.4697265625,34.1C12.4697265625,34.1,12.4697265625,29.31667,12.4697265625,29.31667C12.4697265625,26.773335,13.3796925625,25.875,15.934696562500001,25.875C15.934696562500001,25.875,22.4097465625,25.875,22.4097465625,25.875C24.964726562499997,25.875,25.8747265625,26.773335,25.8747265625,29.31667C25.8747265625,29.31667,25.8747265625,34.111670000000004,25.8747265625,34.111670000000004C25.8747265625,36.643299999999996,24.964726562499997,37.5417,22.4097465625,37.5417C22.4097465625,37.5417,22.4097465625,37.5417,22.4097465625,37.5417ZM15.923016562499999,27.625C14.3363465625,27.625,14.2080465625,27.75333,14.2080465625,29.31667C14.2080465625,29.31667,14.2080465625,34.111670000000004,14.2080465625,34.111670000000004C14.2080465625,35.675,14.3363465625,35.80333,15.923016562499999,35.80333C15.923016562499999,35.80333,22.398076562500002,35.80333,22.398076562500002,35.80333C23.9847265625,35.80333,24.1130265625,35.675,24.1130265625,34.111670000000004C24.1130265625,34.111670000000004,24.1130265625,29.31667,24.1130265625,29.31667C24.1130265625,27.75333,23.9847265625,27.625,22.398076562500002,27.625C22.398076562500002,27.625,15.923016562499999,27.625,15.923016562499999,27.625C15.923016562499999,27.625,15.923016562499999,27.625,15.923016562499999,27.625Z" fill="#FFBB3B" fill-opacity="1"/></g><g><path d="M28.500326671875,37.54161125C28.185326671875,37.54161125,27.893631671875,37.36661125,27.741965671875,37.09828125C27.590298671875,36.81828125,27.590309971875,36.49161125,27.753643671875,36.211611250000004C27.753643671875,36.211611250000004,28.978628671875,34.16995125,28.978628671875,34.16995125C29.223628671875,33.76161125,29.760338671875,33.62161125,30.180338671875,33.86661125C30.600338671875,34.11161125,30.728678671875,34.64828125,30.483678671875,35.06828125C30.483678671875,35.06828125,30.168658671875,35.593281250000004,30.168658671875,35.593281250000004C33.388658671875,34.83495125,35.803668671875,31.94161125,35.803668671875,28.48828125C35.803668671875,28.00994825,36.200328671875,27.61328125,36.678668671875,27.61328125C37.156998671875,27.61328125,37.553668671875,28.00994825,37.553668671875,28.48828125C37.541998671875,33.48161125,33.481988671875,37.54161125,28.500326671875,37.54161125C28.500326671875,37.54161125,28.500326671875,37.54161125,28.500326671875,37.54161125Z" fill="#FFBB3B" fill-opacity="1"/></g><g><path d="M13.333251953125,22.37516609375C12.854918953125,22.37516609375,12.458251953125,21.97849609375,12.458251953125,21.50016609375C12.458251953125,16.51849609375,16.518251953125,12.45849609375,21.499921953125,12.45849609375C21.814921953125,12.45849609375,22.106611953125,12.63349709375,22.258271953125,12.90183109375C22.409941953125,13.18183109375,22.409931953125,13.50849609375,22.246601953125,13.78849609375C22.246601953125,13.78849609375,21.021621953125,15.83016609375,21.021621953125,15.83016609375C20.776621953125,16.23849609375,20.239921953125,16.37849609375,19.819921953125,16.13349609375C19.399921953125002,15.88849609375,19.271571953125,15.35182609375,19.516571953125002,14.93182609375C19.516571953125002,14.93182609375,19.831601953125002,14.40682609375,19.831601953125002,14.40682609375C16.611601953125,15.165166093749999,14.196571953125,18.05849609375,14.196571953125,21.511826093750003C14.208241953125,21.97849609375,13.811581953125,22.37516609375,13.333251953125,22.37516609375C13.333251953125,22.37516609375,13.333251953125,22.37516609375,13.333251953125,22.37516609375Z" fill="#FFBB3B" fill-opacity="1"/></g><g><path d="M32.583251953125,24.70849609375C29.211581953125,24.70849609375,26.458251953125,21.96682609375,26.458251953125,18.58349609375C26.458251953125,15.20016609375,29.199921953125,12.45849609375,32.583251953125,12.45849609375C35.966581953125,12.45849609375,38.708251953125,15.20016609375,38.708251953125,18.58349609375C38.708251953125,21.96682609375,35.954921953125,24.70849609375,32.583251953125,24.70849609375C32.583251953125,24.70849609375,32.583251953125,24.70849609375,32.583251953125,24.70849609375ZM32.583251953125,14.20849609375C30.168251953125,14.20849609375,28.208251953125,16.16849609375,28.208251953125,18.58349609375C28.208251953125,20.99849609375,30.168251953125,22.95849609375,32.583251953125,22.95849609375C34.998251953125,22.95849609375,36.958251953125,20.99849609375,36.958251953125,18.58349609375C36.958251953125,16.16849609375,34.998251953125,14.20849609375,32.583251953125,14.20849609375C32.583251953125,14.20849609375,32.583251953125,14.20849609375,32.583251953125,14.20849609375Z" fill="#FFBB3B" fill-opacity="1"/></g><g style="opacity:0;"></g></g></g></g><g><rect x="1" y="1" width="48.000003814697266" height="48" rx="9" fill-opacity="0" stroke-opacity="1" stroke="#572886" fill="none" stroke-width="2"/></g></g></svg>