<svg xmlns="http://www.w3.org/2000/svg" xmlns:xlink="http://www.w3.org/1999/xlink" fill="none" version="1.1" width="50" height="50" viewBox="0 0 50 50"><g><g><rect x="1" y="1" width="48.000003814697266" height="48" rx="9" fill-opacity="0" stroke-opacity="1" stroke="#572886" fill="none" stroke-width="2"/></g><g><g><g><g><path d="M20.33328865234375,28.20821359375C20.11161865234375,28.20821359375,19.88994865234375,28.12658359375,19.71494865234375,27.95158359375C19.71494865234375,27.95158359375,17.38161865234375,25.61825359375,17.38161865234375,25.61825359375C17.04328535234375,25.27992359375,17.04328535234375,24.71985359375,17.38161865234375,24.38151359375C17.38161865234375,24.38151359375,19.71494865234375,22.04818359375,19.71494865234375,22.04818359375C20.05328865234375,21.70985029375,20.61328865234375,21.70985029375,20.95161865234375,22.04818359375C21.28994865234375,22.38651659375,21.28994865234375,22.94658359375,20.95161865234375,23.28492359375C20.95161865234375,23.28492359375,19.23661865234375,24.99988359375,19.23661865234375,24.99988359375C19.23661865234375,24.99988359375,20.95161865234375,26.71485359375,20.95161865234375,26.71485359375C21.28994865234375,27.05318359375,21.28994865234375,27.61325359375,20.95161865234375,27.95158359375C20.77661865234375,28.12658359375,20.55494865234375,28.20821359375,20.33328865234375,28.20821359375C20.33328865234375,28.20821359375,20.33328865234375,28.20821359375,20.33328865234375,28.20821359375Z" fill="#FFBB3B" fill-opacity="1"/></g><g><path d="M29.6666376640625,28.20821359375C29.4449706640625,28.20821359375,29.2233056640625,28.12658359375,29.0483056640625,27.95158359375C28.7099723640625,27.61325359375,28.7099723640625,27.05318359375,29.0483056640625,26.71485359375C29.0483056640625,26.71485359375,30.7633056640625,24.99988359375,30.7633056640625,24.99988359375C30.7633056640625,24.99988359375,29.0483056640625,23.28492359375,29.0483056640625,23.28492359375C28.7099723640625,22.94658359375,28.7099723640625,22.38651659375,29.0483056640625,22.04818359375C29.3866386640625,21.70985029375,29.9466356640625,21.70985029375,30.2849756640625,22.04818359375C30.2849756640625,22.04818359375,32.6183056640625,24.38151359375,32.6183056640625,24.38151359375C32.9566356640625,24.71985359375,32.9566356640625,25.27992359375,32.6183056640625,25.61825359375C32.6183056640625,25.61825359375,30.2849756640625,27.95158359375,30.2849756640625,27.95158359375C30.1099756640625,28.12658359375,29.8883056640625,28.20821359375,29.6666376640625,28.20821359375C29.6666376640625,28.20821359375,29.6666376640625,28.20821359375,29.6666376640625,28.20821359375Z" fill="#FFBB3B" fill-opacity="1"/></g><g><path d="M25.00001298828125,37.541551953125C18.08164298828125,37.541551953125,12.45831298828125,31.918251953125,12.45831298828125,24.999951953125C12.45831298828125,18.081581953125,18.08164298828125,12.458251953125,25.00001298828125,12.458251953125C31.91831298828125,12.458251953125,37.54161298828125,18.081581953125,37.54161298828125,24.999951953125C37.54161298828125,31.918251953125,31.91831298828125,37.541551953125,25.00001298828125,37.541551953125C25.00001298828125,37.541551953125,25.00001298828125,37.541551953125,25.00001298828125,37.541551953125ZM25.00001298828125,14.208251953125C19.04998298828125,14.208251953125,14.20831298828125,19.049921953125,14.20831298828125,24.999951953125C14.20831298828125,30.949951953125,19.04998298828125,35.791551953125,25.00001298828125,35.791551953125C30.95001298828125,35.791551953125,35.79161298828125,30.949951953125,35.79161298828125,24.999951953125C35.79161298828125,19.049921953125,30.95001298828125,14.208251953125,25.00001298828125,14.208251953125C25.00001298828125,14.208251953125,25.00001298828125,14.208251953125,25.00001298828125,14.208251953125Z" fill="#FFBB3B" fill-opacity="1"/></g><g><path d="M23.8335109609375,28.59349671875C23.716842960937498,28.59349671875,23.6001849609375,28.570166718750002,23.4951849609375,28.52349671875C23.0518515609375,28.33682671875,22.8418529609375,27.82350671875,23.0401855609375,27.368506718749998C23.0401855609375,27.368506718749998,25.3735099609375,21.92012671875,25.3735099609375,21.92012671875C25.5601799609375,21.47679321875,26.0735099609375,21.26677571875,26.5168499609375,21.46510941875C26.9601799609375,21.65177571875,27.1701799609375,22.16516971875,26.9718499609375,22.62016671875C26.9718499609375,22.62016671875,24.6385099609375,28.068486718750002,24.6385099609375,28.068486718750002C24.4985099609375,28.395156718750002,24.1718499609375,28.59349671875,23.8335109609375,28.59349671875C23.8335109609375,28.59349671875,23.8335109609375,28.59349671875,23.8335109609375,28.59349671875Z" fill="#FFBB3B" fill-opacity="1"/></g><g style="opacity:0;"></g></g></g></g></g></svg>