<svg xmlns="http://www.w3.org/2000/svg" xmlns:xlink="http://www.w3.org/1999/xlink" fill="none" version="1.1" width="50" height="50" viewBox="0 0 50 50"><g><g><g><g><g><path d="M22.6550059375,37.541480859375C22.421675937499998,37.541480859375,22.2350059375,37.494780859375,22.095005937499998,37.436480859374996C21.6283359375,37.261480859375,20.8350059375,36.689780859375,20.8350059375,34.881480859375C20.8350059375,34.881480859375,20.8350059375,27.356480859375,20.8350059375,27.356480859375C20.8350059375,27.356480859375,18.1050059375,27.356480859375,18.1050059375,27.356480859375C16.5416759375,27.356480859375,15.9816759375,26.621480859374998,15.7833429375,26.189780859375C15.5850093375,25.746480859374998,15.4100099375,24.848180859375,16.4366759375,23.669780859375003C16.4366759375,23.669780859375003,25.268335937499998,13.636490859375,25.268335937499998,13.636490859375C26.4583359375,12.283157859375,27.4267359375,12.376490859375,27.893335937499998,12.551491059375C28.3600359375,12.726490859375,29.1533359375,13.298157859375,29.1533359375,15.106490859375C29.1533359375,15.106490859375,29.1533359375,22.631480859375,29.1533359375,22.631480859375C29.1533359375,22.631480859375,31.8833359375,22.631480859375,31.8833359375,22.631480859375C33.4467359375,22.631480859375,34.0067359375,23.366480859375002,34.2050359375,23.798180859375C34.4033359375,24.241480859375002,34.578435937500004,25.139780859375,33.5517359375,26.318080859375C33.5517359375,26.318080859375,24.720005937499998,36.351480859375,24.720005937499998,36.351480859375C23.8916759375,37.296480859374995,23.1683359375,37.541480859375,22.6550059375,37.541480859375C22.6550059375,37.541480859375,22.6550059375,37.541480859375,22.6550059375,37.541480859375ZM27.251635937499998,14.196490859375C27.2166359375,14.243150859375,26.9716359375,14.359820859375,26.5866359375,14.803150859375C26.5866359375,14.803150859375,17.755005937500002,24.836480859375,17.755005937500002,24.836480859375C17.4283359375,25.209780859375,17.3816759375,25.443080859375,17.3816759375,25.489780859375C17.4050059375,25.501480859375,17.6150059375,25.618080859375,18.1050059375,25.618080859375C18.1050059375,25.618080859375,21.7100059375,25.618080859375,21.7100059375,25.618080859375C22.1883359375,25.618080859375,22.5850059375,26.014780859375,22.5850059375,26.493080859375C22.5850059375,26.493080859375,22.5850059375,34.893180859375,22.5850059375,34.893180859375C22.5850059375,35.476480859375,22.6900059375,35.733080859375,22.7366759375,35.803080859375C22.7716759375,35.756480859375,23.0166759375,35.639780859375,23.401675937500002,35.196480859375C23.401675937500002,35.196480859375,32.2333359375,25.163080859375,32.2333359375,25.163080859375C32.560035937500004,24.789780859375,32.606735937500005,24.556480859375,32.606735937500005,24.509780859375C32.583335937499996,24.498080859375,32.3734359375,24.381480859375,31.8833359375,24.381480859375C31.8833359375,24.381480859375,28.2783359375,24.381480859375,28.2783359375,24.381480859375C27.8000359375,24.381480859375,27.4033359375,23.984780859375,27.4033359375,23.506480859375C27.4033359375,23.506480859375,27.4033359375,15.106490859375,27.4033359375,15.106490859375C27.4150359375,14.523150859375,27.2983359375,14.278150859375,27.251635937499998,14.196490859375C27.251635937499998,14.196490859375,27.251635937499998,14.196490859375,27.251635937499998,14.196490859375Z" fill="#FFBB3B" fill-opacity="1"/></g><g style="opacity:0;"></g></g></g></g><g><rect x="1" y="1" width="48.000003814697266" height="48" rx="9" fill-opacity="0" stroke-opacity="1" stroke="#572886" fill="none" stroke-width="2"/></g></g></svg>