<svg xmlns="http://www.w3.org/2000/svg" xmlns:xlink="http://www.w3.org/1999/xlink" fill="none" version="1.1" width="50" height="50" viewBox="0 0 50 50"><g><g><g><g><g><path d="M34.3449559765625,33.470088046875C34.1232959765625,33.470088046875,33.9016259765625,33.388428046875,33.7266259765625,33.213428046875C33.7266259765625,33.213428046875,27.9516259765625,27.438418046875,27.9516259765625,27.438418046875C27.6132926765625,27.100078046875,27.6132926765625,26.540081046875,27.9516259765625,26.201748046875C28.2899589765625,25.863414746875,28.8499559765625,25.863414746875,29.1882959765625,26.201748046875C29.1882959765625,26.201748046875,34.9632759765625,31.976758046875,34.9632759765625,31.976758046875C35.3016159765625,32.315088046875,35.3016159765625,32.875088046875,34.9632759765625,33.213428046875C34.7882759765625,33.388428046875,34.5666259765625,33.470088046875,34.3449559765625,33.470088046875C34.3449559765625,33.470088046875,34.3449559765625,33.470088046875,34.3449559765625,33.470088046875Z" fill="#FFBB3B" fill-opacity="1"/></g><g><path d="M22.794941640624998,32.501807031249996C21.943271640625,32.501807031249996,21.126611640625,32.16340703125,20.531611640625,31.55680703125C20.531611640625,31.55680703125,15.584931640625,26.61010703125,15.584931640625,26.61010703125C14.336598640625,25.361807031250002,14.336598640625,23.32010703125,15.584931640625,22.071767031249998C15.584931640625,22.071767031249998,23.833281640625,13.82345703125,23.833281640625,13.82345703125C25.081581640625,12.57512403125,27.123281640625002,12.57512403125,28.371581640625,13.82345703125C28.371581640625,13.82345703125,33.318281640625,18.77011703125,33.318281640625,18.77011703125C33.924881640625,19.37677703125,34.263281640624996,20.18177703125,34.263281640624996,21.03344703125C34.263281640624996,21.88510703125,33.924881640625,22.70177703125,33.318281640625,23.296807031249998C33.318281640625,23.296807031249998,25.069881640625,31.54510703125,25.069881640625,31.54510703125C24.463261640625,32.17510703125,23.658271640625,32.501807031249996,22.794941640624998,32.501807031249996C22.794941640624998,32.501807031249996,22.794941640624998,32.501807031249996,22.794941640624998,32.501807031249996ZM26.096581640625,14.64009703125C25.723281640625,14.64009703125,25.349881640625,14.78009703125,25.069881640625,15.07176703125C25.069881640625,15.07176703125,16.821611640625,23.32010703125,16.821611640625,23.32010703125C16.249941640625,23.89180703125,16.249941640625,24.81340703125,16.821611640625,25.38510703125C16.821611640625,25.38510703125,21.768261640625,30.33180703125,21.768261640625,30.33180703125C22.316601640625,30.88010703125,23.273271640624998,30.88010703125,23.833281640625,30.33180703125C23.833281640625,30.33180703125,32.081581640625004,22.08344703125,32.081581640625004,22.08344703125C32.361581640625005,21.803447031250002,32.513281640624996,21.441767031250002,32.513281640624996,21.05676703125C32.513281640624996,20.67176703125,32.361581640625005,20.29843703125,32.081581640625004,20.03009703125C32.081581640625004,20.03009703125,27.134881640625,15.08344703125,27.134881640625,15.08344703125C26.843281640625,14.780107031250001,26.469881640624997,14.64009703125,26.096581640625,14.64009703125C26.096581640625,14.64009703125,26.096581640625,14.64009703125,26.096581640625,14.64009703125Z" fill="#FFBB3B" fill-opacity="1"/></g><g><path d="M20.3333740234375,36.375C20.3333740234375,36.375,13.3333740234375,36.375,13.3333740234375,36.375C12.8550410234375,36.375,12.4583740234375,35.97833,12.4583740234375,35.5C12.4583740234375,35.021667,12.8550410234375,34.625,13.3333740234375,34.625C13.3333740234375,34.625,20.3333740234375,34.625,20.3333740234375,34.625C20.8117040234375,34.625,21.2083740234375,35.021667,21.2083740234375,35.5C21.2083740234375,35.97833,20.8117040234375,36.375,20.3333740234375,36.375C20.3333740234375,36.375,20.3333740234375,36.375,20.3333740234375,36.375Z" fill="#FFBB3B" fill-opacity="1"/></g><g><path d="M26.90168,29.36306578125C26.68001,29.36306578125,26.45834,29.281385781250002,26.283340000000003,29.10639578125C26.283340000000003,29.10639578125,18.035,20.85809578125,18.035,20.85809578125C17.6966667,20.51975578125,17.6966667,19.95975878125,18.035,19.62142578125C18.373333,19.28309248125,18.93333,19.28309248125,19.27167,19.62142578125C19.27167,19.62142578125,27.52,27.86973578125,27.52,27.86973578125C27.85835,28.20806578125,27.85835,28.76805578125,27.52,29.10639578125C27.35667,29.281385781250002,27.12334,29.36306578125,26.90168,29.36306578125C26.90168,29.36306578125,26.90168,29.36306578125,26.90168,29.36306578125Z" fill="#FFBB3B" fill-opacity="1"/></g><g style="opacity:0;"></g></g></g></g><g><rect x="1" y="1" width="48.000003814697266" height="48" rx="9" fill-opacity="0" stroke-opacity="1" stroke="#572886" fill="none" stroke-width="2"/></g></g></svg>